<svg width="60" height="60" fill="none" xmlns="http://www.w3.org/2000/svg"><path d="M49.595 2.098C46.79-.7 42.228-.7 39.422 2.099l-11.98 11.945-.022.024a7.112 7.112 0 00-2.082 5.05 7.13 7.13 0 002.108 5.08l.506.502.955-.959-.505-.503a5.79 5.79 0 01-1.71-4.12 5.77 5.77 0 011.703-4.11l.022-.023 11.96-11.927c2.278-2.273 5.984-2.274 8.26-.003l8.298 8.27a5.781 5.781 0 011.712 4.115 5.772 5.772 0 01-1.704 4.115l-.024.025-11.96 11.926a5.857 5.857 0 01-8.26 0L36.19 31l-.956.96.51.506a7.18 7.18 0 005.085 2.098c1.842 0 3.684-.7 5.086-2.099l11.98-11.945.025-.026A7.119 7.119 0 0060 15.438a7.123 7.123 0 00-2.11-5.073l-8.295-8.268z" fill="#000"/><path d="M41.943 25.299a1.546 1.546 0 01-1.157.458l-.03 1.353h.068c.787 0 1.521-.3 2.074-.852l8.795-8.761a2.9 2.9 0 00.86-2.071c0-.781-.308-1.517-.864-2.07l-5.097-5.054a2.953 2.953 0 00-4.154.005l-8.793 8.76a2.89 2.89 0 00-.855 2.146l1.353-.036c-.012-.438.15-.847.457-1.152l8.794-8.76a1.595 1.595 0 012.245-.002l5.097 5.054a1.56 1.56 0 01.003 2.221l-8.796 8.76z" fill="#000"/><path d="M19.404 36.092a3.116 3.116 0 000 4.399c.589.589 1.37.913 2.202.913.83 0 1.611-.323 2.198-.91L40.57 23.767l.022-.02a3.119 3.119 0 00.002-4.4 3.087 3.087 0 00-2.203-.913c-.83 0-1.612.323-2.199.909L19.426 36.071a.197.197 0 00-.023.021h.001zm.943.972a.21.21 0 00.017-.017L37.148 20.3c.664-.663 1.823-.662 2.486.003a1.763 1.763 0 01-.002 2.486L22.846 39.534c-.664.665-1.821.664-2.486-.001a1.761 1.761 0 01-.014-2.47v.001z" fill="#000"/><path d="M18.057 34.54a1.572 1.572 0 011.154-.458l.025-1.353a2.947 2.947 0 00-2.134.854l-8.793 8.756a2.898 2.898 0 00-.861 2.07c0 .783.307 1.518.864 2.07l5.095 5.057a2.932 2.932 0 002.075.852c.753 0 1.506-.285 2.078-.856l8.795-8.76a2.887 2.887 0 00.853-2.152l-1.352.04a1.55 1.55 0 01-.457 1.153l-8.794 8.76a1.596 1.596 0 01-2.245.002l-5.095-5.057a1.561 1.561 0 01-.002-2.22l8.794-8.757z" fill="#000"/><path d="M10.404 57.742a7.178 7.178 0 005.087 2.098c1.841 0 3.683-.7 5.086-2.098l11.986-11.954a7.123 7.123 0 002.098-5.073 7.125 7.125 0 00-2.108-5.071l-.507-.506-.956.959.508.505a5.783 5.783 0 011.71 4.115 5.78 5.78 0 01-1.707 4.12L19.62 56.782a5.859 5.859 0 01-8.26 0l-8.297-8.268a5.782 5.782 0 01-1.71-4.115 5.778 5.778 0 011.705-4.118c.006-.006.012-.012.017-.02L15.04 28.333c2.274-2.274 5.98-2.274 8.26 0l.506.504.955-.96-.505-.504c-2.808-2.799-7.371-2.797-10.173.002L2.104 39.319A7.124 7.124 0 000 44.399a7.12 7.12 0 002.11 5.072l8.295 8.27z" fill="#000"/></svg>