<svg width="60" height="64" fill="none" xmlns="http://www.w3.org/2000/svg"><path d="M16.53 47.396a9.951 9.951 0 01-2.371-16.94l.481.6v.001A9.186 9.186 0 0016.827 46.7l-.297.697zm6.418.438l-.2-.743a9.198 9.198 0 006.814-8.878V9.573l-.035-3.276c-.115-3.13-2.795-5.39-6.375-5.39a5.63 5.63 0 00-5.636 5.321l-.077 1.54-.77-.042.077-1.54a6.394 6.394 0 016.39-6.068c4.012 0 7.015 2.591 7.146 6.16l.034 3.292v28.643a9.96 9.96 0 01-7.368 9.62v.001z" fill="#000"/><path d="M8.946 39.615a8.967 8.967 0 01-3.554-17.19L8.561 20.8l.35.686-3.188 1.636a8.196 8.196 0 005.032 15.519l.173.75a9.149 9.149 0 01-1.982.224zm34.018 18.872h-.809a3.217 3.217 0 01-3.214-3.214l-.158-3.561.77-.035.158 3.58a2.452 2.452 0 002.445 2.46h.808v.77z" fill="#000"/><path d="M46.055 61.551a3.467 3.467 0 01-3.465-3.465 3.465 3.465 0 113.465 3.465zm0-6.183a2.695 2.695 0 100 5.39 2.695 2.695 0 000-5.39zm-29.409.932h-.81v-.77h.81a2.448 2.448 0 002.445-2.448V42.344h.77v10.738a3.22 3.22 0 01-3.215 3.219z" fill="#000"/><path d="M12.73 59.365a3.466 3.466 0 110-6.932 3.466 3.466 0 010 6.932zm0-6.183a2.697 2.697 0 00-2.695 2.694 2.697 2.697 0 002.695 2.696 2.697 2.697 0 002.695-2.696 2.697 2.697 0 00-2.695-2.694zm15.654.03h.77v4.22h-.77v-4.22z" fill="#000"/><path d="M28.769 64a3.465 3.465 0 110-6.93 3.465 3.465 0 010 6.93zm0-6.182a2.696 2.696 0 00-1.905 4.6 2.697 2.697 0 004.6-1.906 2.697 2.697 0 00-2.695-2.694zm-.385-10.153h.77v3.26h-.77v-3.26zM5.812 22.768A10.613 10.613 0 0117.196 5.36l-.285.716a9.729 9.729 0 00-3.646-.696 9.84 9.84 0 00-6.93 16.843l-.523.546zm31.565 26.818h-3.939V35.488h.385a10.54 10.54 0 000-21.067h-.385V0h4.423c.815 0 1.475.66 1.475 1.474v4.697a.697.697 0 00.385.616l4.566 2.522c.268.15.602.108.824-.104l3.916-3.696h-.001a1.463 1.463 0 012.052.027L54.543 9a1.474 1.474 0 010 2.082l-3.98 3.958a.695.695 0 00-.15.77l2.055 4.816a.703.703 0 00.647.424h4.916a1.479 1.479 0 011.475 1.474v4.54a1.479 1.479 0 01-1.475 1.474h-4.62a.704.704 0 00-.643.42l-2.63 5.951a.709.709 0 00.163.797l3.295 3.08a1.472 1.472 0 01.03 2.118l-3.425 3.43a1.472 1.472 0 01-2.053.035l-3.106-2.903a.712.712 0 00-.743-.139l-4.59 1.836a.713.713 0 00-.439.585l-.427 4.493a1.467 1.467 0 01-1.466 1.344zm-3.169-.77h3.169a.705.705 0 00.7-.639l.428-4.493a1.472 1.472 0 01.92-1.228l4.589-1.833a1.474 1.474 0 011.54.29l3.11 2.902a.7.7 0 00.978 0l3.43-3.43a.72.72 0 00.208-.509.713.713 0 00-.223-.504l-3.296-3.08a1.473 1.473 0 01-.338-1.67l2.64-5.976a1.476 1.476 0 011.348-.877h4.62c.39 0 .705-.315.705-.705v-4.546a.709.709 0 00-.705-.705h-4.916c-.589 0-1.121-.35-1.355-.89l-2.056-4.804a1.467 1.467 0 01.312-1.62l3.973-3.97a.702.702 0 000-.997l-3.465-3.465a.698.698 0 00-.982 0l-3.915 3.696a1.466 1.466 0 01-1.72.223l-4.578-2.525a1.475 1.475 0 01-.77-1.29V1.474a.705.705 0 00-.705-.704h-3.653v12.889a11.312 11.312 0 019.097 16.693 11.311 11.311 0 01-9.098 5.867l.008 12.597z" fill="#000"/></svg>