<svg width="64" height="47" fill="none" xmlns="http://www.w3.org/2000/svg"><path d="M52.964 31.174H39.35a.48.48 0 00-.16.033c-.505-4.219-3.896-8.526-4.052-8.72a.472.472 0 00-.369-.179h-.002a.473.473 0 00-.368.18c-.153.195-3.473 4.48-3.982 8.686h-17.62a.469.469 0 00-.33.136L.14 43.517a.472.472 0 00.331.805H42.4a.47.47 0 00.356-.164L53.32 31.953a.472.472 0 00-.356-.779zM34.775 23.57c.977 1.356 3.542 5.242 3.542 8.648 0 3.806-3.303 3.982-3.545 3.99-.238-.009-3.483-.185-3.483-3.99 0-3.401 2.523-7.288 3.486-8.648zm7.408 19.81H1.616L12.99 32.116h17.361c0 .035-.005.07-.005.103 0 4.803 4.373 4.93 4.417 4.93h.016c.045 0 4.48-.127 4.48-4.93 0-.041-.005-.082-.006-.123.033.008.064.02.099.02h12.583L42.183 43.38zM21.572 26.286h.015c.044 0 4.48-.127 4.48-4.93 0-4.512-3.952-9.521-4.12-9.733a.472.472 0 00-.369-.177h-.001a.472.472 0 00-.369.18c-.165.21-4.052 5.219-4.052 9.729.001 4.804 4.372 4.93 4.416 4.931zm.01-13.578c.978 1.357 3.545 5.245 3.545 8.647 0 3.813-3.317 3.982-3.548 3.988-.234-.005-3.48-.159-3.48-3.988 0-3.401 2.521-7.287 3.484-8.647zm12.016 2.132h.016c.044 0 4.481-.128 4.481-4.93 0-4.512-3.952-9.52-4.12-9.732a.471.471 0 00-.37-.178h-.001a.47.47 0 00-.368.18c-.166.21-4.053 5.22-4.053 9.728 0 4.805 4.37 4.932 4.415 4.933zm.011-13.576c.977 1.355 3.544 5.24 3.544 8.646 0 3.812-3.317 3.982-3.549 3.99-.236-.007-3.48-.162-3.48-3.99 0-3.4 2.522-7.287 3.485-8.646zM59.913 42.03l3.948-3.95a.471.471 0 00-.666-.666l-3.948 3.95-3.948-3.95a.472.472 0 00-.666.667l3.947 3.949-3.947 3.949a.471.471 0 10.666.666l3.948-3.949 3.948 3.949a.47.47 0 00.667-.666l-3.949-3.95z" fill="#000"/></svg>