<svg width="60" height="53" fill="none" xmlns="http://www.w3.org/2000/svg"><path d="M29.415 52.132a.716.716 0 001.146 0l22.012-22.056a.715.715 0 00.13-.837l-7.276-13.714a.715.715 0 00-.63-.38H15.193a.715.715 0 00-.63.38L7.287 29.24a.715.715 0 00.13.837l21.998 22.056zm8.7-21.84l-8.12 19.549-8.07-19.55h16.19zm-15.998-1.433L29.994 17.4l7.878 11.458H22.117zM39.64 30.29h10.699L32.02 48.66l7.619-18.368zm.594-1.432l4.698-11.243 5.944 11.243H40.234zm-1.217-.795L31.14 16.606h12.682l-4.805 11.458zm-18.06-.05l-4.719-11.458h12.575l-7.856 11.458zm-1.174.845H9.113l6.001-11.315 4.669 11.315zm.594 1.432l7.57 18.34L9.65 30.292l10.727-.001zM29.28 0h1.432v10.505h-1.433V0zm22.28 14.9l7.427-7.428L60 8.484l-7.428 7.429-1.013-1.013zM0 8.491l1.013-1.012 7.428 7.428-1.013 1.012L0 8.491z" fill="#fff"/></svg>