<svg width="906" height="596" fill="none" xmlns="http://www.w3.org/2000/svg"><path d="M200.91 408.398c42.8 30.4 90.167 34.334 108.5 32.5l90-90.5c-45.833-.833-140.4.2-152 11-14.5 13.5-70 7.5-106.5 10.5s-39.5 14-43 21.5-3 34.5 23.5 40.5c21.2 4.8 17.167-9.333 12.5-17 10.4-12 49-10.666 67-8.5z" fill="#FF7E21"/><path d="M830.911 481.898c-22.8 2.8-41.834-15.166-48.5-24.5 6.166 18.834-1.245 54.497 1.589 48 6.5-14.898 74.5 3.102 103.911 0 10.5-39-28.5-27-57-23.5z" fill="#E75718"/><path d="M885.41 438.898c-7.2-67.2-59.999-93.166-86.999-99 3-20-10.167-39.333-17.5-46-20.8 21.2-19 61.5-15.5 79-7.2-10.8-8.667-24.833-8-30.5-7.2 44.4-32.667 58.5-45 60-112.4 32-199-187.5-362.5-29.5l106.5 132c16-66 266.5-11.5 273.5 0s23.5 23 41 32c15.351 7.895 51 13 69.5-3 15.524-13.426 53.666-10.333 63-5.5 9.5-35.5-17.244-38.001-48.5-30.5-25 6-52.5-5-52.5-5-21.5-18-20.117-42.331-7.001-38.5 35.6 10.4 74.834-6 90-15.5z" fill="#FF7E21"/><path d="M798.411 339.898c3-20-10.167-39.333-17.5-46-3.833 13.334-10.1 45.6-4.5 68l22-22z" fill="url(#paint0_linear_4_259)"/><path d="M840.911 384.398c-8.4-14-21.834-9.833-27.5-6-2.4 11.2 10.333 17.334 17 19 7 1.5 18.9 1 10.5-13z" fill="#FFD5A1"/><path d="M316.224 535.044c-9.654-4.248-7.598-65.784-5.364-96.021l10.727-24.337c-3.576-2.36-13.498-.796-24.582 24.337-13.855 31.417-16.983 120.358-11.62 131.863 5.363 11.504 16.09 32.744 36.202 22.124 20.112-10.62 6.704-52.656-5.363-57.966z" fill="#FF7E21"/><path d="M316.224 535.044c-9.654-4.248-7.598-65.784-5.364-96.021l10.727-24.337c-3.576-2.36-13.498-.796-24.582 24.337-13.855 31.417-16.983 120.358-11.62 131.863 5.363 11.504 16.09 32.744 36.202 22.124 20.112-10.62 6.704-52.656-5.363-57.966z" fill="url(#paint1_linear_4_259)"/><path d="M467.578 525.921c62.033-80.847 4.129-130.458-32.577-145.157-7.647-21.743-40.193-46.304-109.2 29.399-86.26 94.628 64.235 216.817 141.777 115.758z" fill="#FF7E21"/><path d="M467.578 525.921c62.033-80.847 4.129-130.458-32.577-145.157-7.647-21.743-40.193-46.304-109.2 29.399-86.26 94.628 64.235 216.817 141.777 115.758z" fill="url(#paint2_linear_4_259)"/><path d="M358.411 199.398c-3.6 115.6 23.833 142.834 38 142 42.833 17.5 96.4 52.7-32 53.5-160.5 1-166.5-53.5-169.5-163.5-3-109.999-72.5-109-81.5-106s-28.5 9-11 32c14 18.4 29.5 1.667 35.5-9 31.5 2.5 18 115-69.5 83s-83.5-98.5-30.5-176.5 158-53.5 198-42 127 42 122.5 186.5z" fill="#FF7E21"/><path d="M358.411 199.398c-3.6 115.6 23.833 142.834 38 142 42.833 17.5 96.4 52.7-32 53.5-160.5 1-166.5-53.5-169.5-163.5-3-109.999-72.5-109-81.5-106s-28.5 9-11 32c14 18.4 29.5 1.667 35.5-9 31.5 2.5 18 115-69.5 83s-83.5-98.5-30.5-176.5 158-53.5 198-42 127 42 122.5 186.5z" fill="url(#paint3_linear_4_259)"/><mask id="a" style="mask-type:alpha" maskUnits="userSpaceOnUse" x="299" y="358" width="196" height="206"><path d="M467.578 525.921c62.033-80.847 4.129-130.458-32.577-145.157-7.647-21.743-40.193-46.304-109.2 29.399-86.26 94.628 64.235 216.817 141.777 115.758z" fill="#FF7E21"/><path d="M467.578 525.921c62.033-80.847 4.129-130.458-32.577-145.157-7.647-21.743-40.193-46.304-109.2 29.399-86.26 94.628 64.235 216.817 141.777 115.758z" fill="url(#paint4_linear_4_259)"/></mask><g mask="url(#a)"><path d="M409.411 522.898c60.4-20.4 42.833-79.833 26.5-107-38.834-11.666-123-29.5-149-7.5s-2.167 65.5 13 84.5c11.333 18.5 49.1 50.4 109.5 30z" fill="#FF7E21"/></g><mask id="b" style="mask-type:alpha" maskUnits="userSpaceOnUse" x="0" y="0" width="445" height="395"><path d="M358.411 199.398c-3.6 115.6 23.833 142.834 38 142 42.833 17.5 96.4 52.7-32 53.5-160.5 1-166.5-53.5-169.5-163.5-3-109.999-72.5-109-81.5-106s-28.5 9-11 32c14 18.4 29.5 1.667 35.5-9 31.5 2.5 18 115-69.5 83s-83.5-98.5-30.5-176.5 158-53.5 198-42 127 42 122.5 186.5z" fill="#FF7E21"/><path d="M358.411 199.398c-3.6 115.6 23.833 142.834 38 142 42.833 17.5 96.4 52.7-32 53.5-160.5 1-166.5-53.5-169.5-163.5-3-109.999-72.5-109-81.5-106s-28.5 9-11 32c14 18.4 29.5 1.667 35.5-9 31.5 2.5 18 115-69.5 83s-83.5-98.5-30.5-176.5 158-53.5 198-42 127 42 122.5 186.5z" fill="url(#paint5_linear_4_259)"/></mask><g mask="url(#b)"><path d="M85.41 198.399c44 20.8 56.667-28 57.5-55 15.334 12.166 44.4 46.999 38 88.999-6.4 42 16.667 100.5 29 124.5 84.334 21.5 231.5 51.6 145.5 0-107.5-64.5-85-100.999-93-197.999s-80-111.5-153.5-95.5-78.5 109-23.5 135z" fill="#FF7E21"/></g><defs><linearGradient id="paint0_linear_4_259" x1="781.05" y1="293.898" x2="781.05" y2="371.398" gradientUnits="userSpaceOnUse"><stop stop-color="#E85718"/><stop offset=".776" stop-color="#FF7E21"/></linearGradient><linearGradient id="paint1_linear_4_259" x1="320.073" y1="491.084" x2="262.86" y2="557.553" gradientUnits="userSpaceOnUse"><stop stop-color="#FF751A"/><stop offset="1" stop-color="#E75718"/></linearGradient><linearGradient id="paint2_linear_4_259" x1="425.411" y1="413.898" x2="422.384" y2="564.401" gradientUnits="userSpaceOnUse"><stop stop-color="#FF7E21"/><stop offset="1" stop-color="#E75718"/></linearGradient><linearGradient id="paint3_linear_4_259" x1="172.911" y1="-18.602" x2="208.451" y2="295.056" gradientUnits="userSpaceOnUse"><stop offset=".27" stop-color="#EB5E19"/><stop offset="1" stop-color="#F96514" stop-opacity="0"/></linearGradient><linearGradient id="paint4_linear_4_259" x1="425.411" y1="413.898" x2="422.384" y2="564.401" gradientUnits="userSpaceOnUse"><stop stop-color="#FF7E21"/><stop offset="1" stop-color="#E75718"/></linearGradient><linearGradient id="paint5_linear_4_259" x1="172.911" y1="-18.602" x2="208.451" y2="295.056" gradientUnits="userSpaceOnUse"><stop offset=".27" stop-color="#EB5E19"/><stop offset="1" stop-color="#F96514" stop-opacity="0"/></linearGradient></defs></svg>