<svg width="538" height="645" fill="none" xmlns="http://www.w3.org/2000/svg"><path d="M116 476.002c-15.565-39.092 7.167-45.667 21.5-44.5-2.5-7.5-1-25.6-15-30-17.5-5.5-37.742 2.384-44 18.999-14.5 38.499-4 51.5 0 72.5s61.5 50.5 113.5 59c41.6 6.8 53-7.834 52.5-15.001-35-5-107-7-128.5-60.998z" fill="#E75718"/><path d="M400.5 186c-.4 5.2-27.167 16.167-40.5 21-7.833 13.333-17.8 41.4 5 47 28.5 7 67-28 64-55s-4-34 0-38 12.5-28.5-11-28-17 46.5-17.5 53z" fill="#FF7E21"/><path d="M197.013 145.547c39.835-54.597 98.544-50.685 124.844-42.237 7.402-18.82 28.471-28.98 38.155-31.087 7.413 28.759-14.295 62.76-26.077 76.166 11.636-5.753 16.809-15.648 19.065-20.889-15.965 42.052 2.154 65.471 12.085 72.937C446.426 284.349 392.5 465.5 392.5 411.5l-160 132c-48.5-66-23.653-136.615-14-146 18-17.5 56.375-117.944 37-114.5-25.312 4.5-83.478-26.082-91.5-49.188-6.731-19.39-30.5.481-41 0-42-43.812 65.484-33.375 70.926-21.92 11.033 23.222 47.966 21.92 47.966 21.92 27.62-4.839 38.588-26.602 25.313-29.842-36.031-8.793-61.808-42.613-70.192-58.423z" fill="#FF7E21"/><path d="M461 348c-6.4-42.4-43-26.667-60.5-13.5C361.333 379.333 277.2 477.6 254 512c-29 43-93 24.5-133.5 0s-52-71-23-96c23.2-20 35.667 2.334 39 16 12-52.5-35-47.5-54.5-35.5S16.5 485 59.5 561s95 95 167 77.5 100-119 101.5-133c1.2-11.2 11.167-23.666 16-28.5 0 20 10 30.5 17.5 24s27.5-23.5 45.5-32 46-8.5 35-28c-8.8-15.6-46.333 7.834-64 21.5 4-14.5 40.5-31.5 50.5-38S469 401 461 348z" fill="#FF7E21"/><path d="M461 348c-6.4-42.4-43-26.667-60.5-13.5C361.333 379.333 277.2 477.6 254 512c-29 43-93 24.5-133.5 0s-52-71-23-96c23.2-20 35.667 2.334 39 16 12-52.5-35-47.5-54.5-35.5S16.5 485 59.5 561s95 95 167 77.5 100-119 101.5-133c1.2-11.2 11.167-23.666 16-28.5 0 20 10 30.5 17.5 24s27.5-23.5 45.5-32 46-8.5 35-28c-8.8-15.6-46.333 7.834-64 21.5 4-14.5 40.5-31.5 50.5-38S469 401 461 348z" fill="url(#paint0_linear_4_274)"/><path d="M321.856 103.31c7.402-18.82 28.472-28.98 38.156-31.088-3.347 13.464-14.053 44.541-30.103 61.14l-8.053-30.052z" fill="url(#paint1_linear_4_274)"/><path d="M262.8 120.598c14.275-7.924 23.825 2.401 26.816 8.554-3.521 10.899-17.616 9.844-24.222 7.955-6.813-2.201-16.868-8.584-2.594-16.509z" fill="#FFD5A1"/><defs><linearGradient id="paint0_linear_4_274" x1="252" y1="539" x2="196.556" y2="664.752" gradientUnits="userSpaceOnUse"><stop stop-color="#FF7E21"/><stop offset="1" stop-color="#E75718"/></linearGradient><linearGradient id="paint1_linear_4_274" x1="359.892" y1="72.153" x2="321.142" y2="139.27" gradientUnits="userSpaceOnUse"><stop stop-color="#E85718"/><stop offset=".776" stop-color="#FF7E21"/></linearGradient></defs></svg>