<svg width="660" height="513" fill="none" xmlns="http://www.w3.org/2000/svg"><path d="M496.516 77.582c32.8 43.6-8.334 56.834-33 58 38.5 33 70.999 28.5 84.999 14.5s5-48.5-9.5-78.5-58.499-54.5-93.999-42.5c-35.5 12-33.5 71-32 59s42.5-65 83.5-10.5z" fill="#EB5E19"/><path d="M372.015 303.582c-11.6 9.6-7.833 27.333-4.5 35 2.5 37 21 110.3 75 107.5 67.5-3.5 118-33.5 112-136s-166.5-170-132.5-233 101-17.5 110.5 43c7.6 48.4-43.833 29.833-70.5 14.5 99.5 119.5 143.5-17.5 73.5-94.5s-149.999-22.5-163.5-5l-.073.096c-13.564 17.582-51.341 66.55-4.427 146.904 47 80.5 19 109.5 4.5 121.5z" fill="#E75718"/><path d="M372.015 303.582c-11.6 9.6-7.833 27.333-4.5 35 2.5 37 21 110.3 75 107.5 67.5-3.5 118-33.5 112-136s-166.5-170-132.5-233 101-17.5 110.5 43c7.6 48.4-43.833 29.833-70.5 14.5 99.5 119.5 143.5-17.5 73.5-94.5s-149.999-22.5-163.5-5l-.073.096c-13.564 17.582-51.341 66.55-4.427 146.904 47 80.5 19 109.5 4.5 121.5z" fill="url(#paint0_linear_4_281)"/><path d="M130.137 156.809c39.835-54.597 98.544-50.685 124.844-42.237 7.402-18.82 28.471-28.98 38.155-31.087 7.414 28.76-14.295 62.76-26.076 76.166 11.635-5.753 16.808-15.648 19.064-20.889-15.964 42.052 2.154 65.471 12.085 72.937 29.755 21.693 44.602 67.961 48.306 88.383 1.6 2.8 15 17.167 21.5 24 10.4 14 59.667 34.5 83 43 31.2 23.2 15 62 3 78.5-6.4 13.2-2.666 24.167 0 28 35.2-8 57-8 63.5-7 28 3 33 18.5 30 23.5-2.4 4-18 5.667-25.499 6-37-9.5-82.501-4-92.501-3-8 .8-17.666-5-21.5-8-15.2-8-31-7-37-5.5-68 12-97-.5-102-1-4-.4-4.333 2.167-4 3.5-31.2-7.6-76.666-4.5-95.5-2-6-15.5 17.5-24 24-24 5.2 0 33.5 7.667 47 11.5-106-67.2-61.5-114.333-26-129.5-21.2-30-20.5-50.5-17.5-57 8.5-25 10.5-65.85 3.314-65.85-37.088 0-61.807-42.613-70.192-58.423z" fill="#FF7E21"/><path d="M130.137 156.809c39.835-54.597 98.544-50.685 124.844-42.237 7.402-18.82 28.471-28.98 38.155-31.087 7.414 28.76-14.295 62.76-26.076 76.166 11.635-5.753 16.808-15.648 19.064-20.889-15.964 42.052 2.154 65.471 12.085 72.937 29.755 21.693 44.602 67.961 48.306 88.383 1.6 2.8 15 17.167 21.5 24 10.4 14 59.667 34.5 83 43 31.2 23.2 15 62 3 78.5-6.4 13.2-2.666 24.167 0 28 35.2-8 57-8 63.5-7 28 3 33 18.5 30 23.5-2.4 4-18 5.667-25.499 6-37-9.5-82.501-4-92.501-3-8 .8-17.666-5-21.5-8-15.2-8-31-7-37-5.5-68 12-97-.5-102-1-4-.4-4.333 2.167-4 3.5-31.2-7.6-76.666-4.5-95.5-2-6-15.5 17.5-24 24-24 5.2 0 33.5 7.667 47 11.5-106-67.2-61.5-114.333-26-129.5-21.2-30-20.5-50.5-17.5-57 8.5-25 10.5-65.85 3.314-65.85-37.088 0-61.807-42.613-70.192-58.423z" fill="url(#paint1_linear_4_281)"/><path d="M230.515 241.082c-24.4 19.6-6.833 57.167 5 73.5 14 8.8 8.5 35.333 4 47.5-31 71.5 44.5 91.5 56 93s54.5 10 70-44.5-38-86.5-51-96c-10.4-7.6-10.666-21.5-9.5-27.5 4-47-44-70.5-74.5-46z" fill="#FFD5A1"/><path d="M254.981 114.572c7.402-18.82 28.471-28.98 38.155-31.088-3.347 13.464-14.053 44.541-30.103 61.14l-8.052-30.052z" fill="url(#paint2_linear_4_281)"/><path d="M227.252 120.988c-1.157-20.191 13.723-38.238 21.636-44.206 2.597 13.629 5.884 46.333-1.741 68.127l-19.895-23.921z" fill="url(#paint3_linear_4_281)"/><path d="M195.925 131.86c14.274-7.924 23.825 2.401 26.815 8.554-3.521 10.899-17.615 9.845-24.222 7.955-6.812-2.201-16.868-8.584-2.593-16.509z" fill="#FFD5A1"/><path d="M245.015 324.082c-30.4-33.6-28.333-68-23.5-81-1.666-3.333-8.6-3.3-23 23.5s21 77.167 40.5 99c-1 7 6 22 21 21s23-20.5-15-62.5z" fill="#FF7E21"/><path d="M245.015 324.082c-30.4-33.6-28.333-68-23.5-81-1.666-3.333-8.6-3.3-23 23.5s21 77.167 40.5 99c-1 7 6 22 21 21s23-20.5-15-62.5z" fill="url(#paint4_linear_4_281)"/><path d="M339.516 281.082c.8-32.8-21.834-56-35.5-62.5l-12.501 19c16 10.5 12.501 40.5 12.501 50.5s-21.5 79.5-4.5 94 32-8.5 28-20-.5-23.5 0-30.5 11-9.5 12-50.5z" fill="#FF7E21"/><path d="M339.516 281.082c.8-32.8-21.834-56-35.5-62.5l-12.501 19c16 10.5 12.501 40.5 12.501 50.5s-21.5 79.5-4.5 94 32-8.5 28-20-.5-23.5 0-30.5 11-9.5 12-50.5z" fill="url(#paint5_linear_4_281)"/><defs><linearGradient id="paint0_linear_4_281" x1="412.515" y1="143.582" x2="336.841" y2="378.514" gradientUnits="userSpaceOnUse"><stop stop-color="#FF7E21"/><stop offset="1" stop-color="#E75718"/></linearGradient><linearGradient id="paint1_linear_4_281" x1="294.669" y1="399.971" x2="275.813" y2="570.886" gradientUnits="userSpaceOnUse"><stop stop-color="#FF7E21"/><stop offset="1" stop-color="#E75718"/></linearGradient><linearGradient id="paint2_linear_4_281" x1="293.016" y1="83.415" x2="254.266" y2="150.532" gradientUnits="userSpaceOnUse"><stop stop-color="#E85718"/><stop offset=".776" stop-color="#FF7E21"/></linearGradient><linearGradient id="paint3_linear_4_281" x1="248.749" y1="76.77" x2="241.658" y2="153.945" gradientUnits="userSpaceOnUse"><stop stop-color="#E85718"/><stop offset=".776" stop-color="#FF7E21"/></linearGradient><linearGradient id="paint4_linear_4_281" x1="233.815" y1="339.401" x2="200.292" y2="370.634" gradientUnits="userSpaceOnUse"><stop stop-color="#FF7E21"/><stop offset="1" stop-color="#E75718"/></linearGradient><linearGradient id="paint5_linear_4_281" x1="313.272" y1="332.635" x2="280.684" y2="350.639" gradientUnits="userSpaceOnUse"><stop stop-color="#FF7E21"/><stop offset="1" stop-color="#E75718"/></linearGradient></defs></svg>