<svg width="698" height="716" fill="none" xmlns="http://www.w3.org/2000/svg"><path d="M463.497 190.273c14 51.6 5.833 106.5 0 127.5l-15 21.499c23.833 2.334 73.2-14.3 80-99.5 8.5-106.5 72.5-92 86-85.5 10.8 5.2 4.5 29.5 0 41 53-52.5 23.5-134.5-53-142s-115.5 72.501-98 137.001z" fill="#FF7E21"/><path d="M463.497 190.273c14 51.6 5.833 106.5 0 127.5l-15 21.499c23.833 2.334 73.2-14.3 80-99.5 8.5-106.5 72.5-92 86-85.5 10.8 5.2 4.5 29.5 0 41 53-52.5 23.5-134.5-53-142s-115.5 72.501-98 137.001z" fill="url(#paint0_linear_4_328)"/><path d="M266.998 548.772c5.6-3.2 18.333-29.666 24-42.5 16.166-6.666 48.6-16.3 49-1.5.5 18.5-55.5 54-62.5 56s-28 2.5-30-5.5 12.5-2.5 19.5-6.5z" fill="#E75718"/><path d="M176.672 491.043c7.2-67.2 60-93.167 87-99-3-20 10.166-39.333 17.5-46 20.8 21.2 19 61.5 15.5 79 7.2-10.8 6.732-21.956 6.066-27.622 7.2 44.4 22.201.736 21.182-5.027 11.728-49.688 62.203-134.063 170.282-74.064 25.099 17.481 62.196 78.443 9.796 182.443-12.5-6.167-39.6-25.2-48-52-12 11.666-39.9 33-55.5 25-27.2 76.8-100 96.333-133 96.5-10.4-2-6.334-8.167-3-11 24.5 3 64.539-44.541 59.422-49.631-17.422 12.631-40.699-3.593-46.922 0-32.12 18.544-85.159-9.099-100.326-18.599z" fill="#FF7E21"/><path d="M176.672 491.043c7.2-67.2 60-93.167 87-99-3-20 10.166-39.333 17.5-46 20.8 21.2 19 61.5 15.5 79 7.2-10.8 6.732-21.956 6.066-27.622 7.2 44.4 22.201.736 21.182-5.027 11.728-49.688 62.203-134.063 170.282-74.064 25.099 17.481 62.196 78.443 9.796 182.443-12.5-6.167-39.6-25.2-48-52-12 11.666-39.9 33-55.5 25-27.2 76.8-100 96.333-133 96.5-10.4-2-6.334-8.167-3-11 24.5 3 64.539-44.541 59.422-49.631-17.422 12.631-40.699-3.593-46.922 0-32.12 18.544-85.159-9.099-100.326-18.599z" fill="url(#paint1_linear_4_328)"/><mask id="a" style="mask-type:alpha" maskUnits="userSpaceOnUse" x="176" y="297" width="355" height="274"><path d="M176.672 491.043c7.2-67.2 60-93.167 87-99-3-20 10.167-39.333 17.5-46 20.8 21.2 19 61.5 15.5 79 7.2-10.8 6.732-21.956 6.066-27.622 7.2 44.4 22.201.736 21.182-5.027 11.728-49.688 62.203-134.062 170.282-74.064 25.099 17.481 62.196 78.443 9.796 182.443-12.5-6.167-39.6-25.2-48-52-12 11.666-39.9 33-55.5 25-27.2 76.8-100 96.333-133 96.5-10.4-2-6.334-8.167-3-11 24.5 3 64.539-44.54 59.422-49.631-17.422 12.631-40.699-3.593-46.922 0-32.119 18.544-85.159-9.099-100.326-18.599z" fill="#FF7E21"/><path d="M176.672 491.043c7.2-67.2 60-93.167 87-99-3-20 10.167-39.333 17.5-46 20.8 21.2 19 61.5 15.5 79 7.2-10.8 6.732-21.956 6.066-27.622 7.2 44.4 22.201.736 21.182-5.027 11.728-49.688 62.203-134.062 170.282-74.064 25.099 17.481 62.196 78.443 9.796 182.443-12.5-6.167-39.6-25.2-48-52-12 11.666-39.9 33-55.5 25-27.2 76.8-100 96.333-133 96.5-10.4-2-6.334-8.167-3-11 24.5 3 64.539-44.54 59.422-49.631-17.422 12.631-40.699-3.593-46.922 0-32.119 18.544-85.159-9.099-100.326-18.599z" fill="url(#paint2_linear_4_328)"/></mask><g mask="url(#a)"><path d="M335.498 465.772c-32.498 15.228-48.667 37.334-43 48.5C299.498 517.106 308 530.8 316 524c8-6.8 18.831-44.894 19.498-58.228z" fill="#FFD5A1"/></g><path d="M436.997 462.273c12-2.001 49.334 22.833 66.5 35.5v5.999c0-10.5-75-16-82-20.5s.5-18.499 15.5-20.999z" fill="#E75718"/><path d="M263.671 392.043c-3-20 10.167-39.333 17.5-46 3.833 13.334 10.1 45.6 4.5 68l-22-22z" fill="url(#paint3_linear_4_328)"/><path d="M242.866 411.464c-11.098-16.906-7.235-39.976-3.366-49.101 9.063 10.504 28.263 37.183 32.555 59.87l-29.189-10.769z" fill="url(#paint4_linear_4_328)"/><path d="M221.172 436.544c8.4-14 21.833-9.834 27.5-6 2.4 11.2-10.334 17.333-17 19-7 1.5-18.9 1-10.5-13z" fill="#FFD5A1"/><defs><linearGradient id="paint0_linear_4_328" x1="567.498" y1="122.272" x2="518.788" y2="93.359" gradientUnits="userSpaceOnUse"><stop stop-color="#FF7E21"/><stop offset="1" stop-color="#E75718"/></linearGradient><linearGradient id="paint1_linear_4_328" x1="460.998" y1="353.773" x2="507.366" y2="401.328" gradientUnits="userSpaceOnUse"><stop offset=".172" stop-color="#FF7E21"/><stop offset="1" stop-color="#E75718"/></linearGradient><linearGradient id="paint2_linear_4_328" x1="460.998" y1="353.773" x2="507.366" y2="401.328" gradientUnits="userSpaceOnUse"><stop offset=".172" stop-color="#FF7E21"/><stop offset="1" stop-color="#E75718"/></linearGradient><linearGradient id="paint3_linear_4_328" x1="281.032" y1="346.043" x2="281.032" y2="423.543" gradientUnits="userSpaceOnUse"><stop stop-color="#E85718"/><stop offset=".776" stop-color="#FF7E21"/></linearGradient><linearGradient id="paint4_linear_4_328" x1="239.374" y1="362.421" x2="271.82" y2="432.803" gradientUnits="userSpaceOnUse"><stop stop-color="#E85718"/><stop offset=".776" stop-color="#FF7E21"/></linearGradient></defs></svg>