<svg width="63" height="65" fill="none" xmlns="http://www.w3.org/2000/svg"><path d="M62.174 31.08A31.085 31.085 0 0034.279.164a31.086 31.086 0 00-12.647 60.538c.122.039.25.059.379.058.245 0 .485-.066.696-.19.274-.163.479-.42.575-.724l7.85-24.883a3.888 3.888 0 003.336-5.846 3.885 3.885 0 00-3.376-1.926 3.837 3.837 0 00-1.666.389L19.055 17.207a1.295 1.295 0 00-1.831 1.831L27.59 29.416a3.806 3.806 0 001.09 4.69l-7.481 23.71A28.521 28.521 0 012.898 26.51a28.525 28.525 0 1139.77 30.597L41.86 53.3a1.295 1.295 0 00-2.129-.698l-7.794 6.958a1.295 1.295 0 00.469 2.202l9.95 3.176a1.294 1.294 0 001.664-1.503l-.794-3.735a30.986 30.986 0 0018.949-28.618l-.001-.002zm-31.087-1.295a1.295 1.295 0 110 2.589 1.295 1.295 0 010-2.59zm4.267 30.19l4.436-3.956 1.224 5.77-5.66-1.813z" fill="#000"/><path d="M29.792 6.47v2.59a1.295 1.295 0 002.59 0V6.47a1.295 1.295 0 00-2.59 0zM6.477 29.785a1.295 1.295 0 000 2.59h2.59a1.295 1.295 0 000-2.59h-2.59zm49.221 2.59a1.295 1.295 0 000-2.59h-2.591a1.295 1.295 0 000 2.59h2.59z" fill="#000"/></svg>