<svg width="92" height="90" fill="none" xmlns="http://www.w3.org/2000/svg"><g clip-path="url(#clip0_3_247)"><mask id="a" style="mask-type:alpha" maskUnits="userSpaceOnUse" x="-1" y="23" width="66" height="67"><ellipse cx="32" cy="56.5" rx="33" ry="33.5" fill="#000"/></mask><g mask="url(#a)"><path d="M77.48 55.559c3.981-21.744-10.164-34.79-18.09-39.125 2.799-5.994.465-13.28-1.215-16.051C49.684 5.1 46.506 17.906 45.979 23.719c-1.255-4.056-.412-8.593.323-10.308-6.38 13.255-15.675 15.313-19.682 14.638-38.218-.4-57.075 20.168-61.726 30.502l33.55-3.881c24.952 5 26.795 16.632 27.922 20.888 1.127 4.257.744 6.701 5.797 9.22 5.052 2.52 15.997 1.838 22.384-3.605 5.11-4.354 11.61-.428 14.087 1.954 8.645-9.038-1.24-14.523-11.737-15.073-8.397-.44-10.459-3.267-10.459-3.267-5.07-7.641-2.377-15.143 1.38-12.724 10.198 6.567 24.023 5.067 29.661 3.495z" fill="#FF7E21"/><path d="M59.69 16.598c2.953-5.98-.01-13.485-2.042-16.372-2.632 3.791-7.911 13.288-7.974 20.947l10.017-4.575z" fill="url(#paint0_linear_3_247)"/><path d="M68.914 34.803c-1.344-6.237-6.507-6.028-8.921-5.144-2.11 4.047 1.64 7.715 3.778 9.043 2.274 1.3 6.486 2.338 5.143-3.9z" fill="#FFD5A1"/><path d="M11.122 106.609c30.003-28.887 2.721-46.636-14.67-51.9l-30.424 2.453c11.357-40.077 38.2-28.718 59.782-64.924 17.264-28.964 4.886-55.86-3.46-65.688-2.97-4.3-13.751-14.198-33.122-19.386-19.371-5.188-32.836-1.055-37.147 1.66 49.45 12.726 36.77 33.24 24.248 41.906C-133.746 7.264-83.926 90.612-37.45 102.15l63.501 18.802c.773-4.904-6.357-7.186-13.83-8.885-5.978-1.36-3.224-4.205-1.1-5.458z" fill="url(#paint1_radial_3_247)"/><path d="M11.122 106.609c30.003-28.887 2.721-46.636-14.67-51.9l-30.424 2.453c11.357-40.077 38.2-28.718 59.782-64.924 17.264-28.964 4.886-55.86-3.46-65.688-2.97-4.3-13.751-14.198-33.122-19.386-19.371-5.188-32.836-1.055-37.147 1.66 49.45 12.726 36.77 33.24 24.248 41.906C-133.746 7.264-83.926 90.612-37.45 102.15l63.501 18.802c.773-4.904-6.357-7.186-13.83-8.885-5.978-1.36-3.224-4.205-1.1-5.458z" fill="url(#paint2_linear_3_247)"/><mask id="b" style="mask-type:alpha" maskUnits="userSpaceOnUse" x="-90" y="-95" width="125" height="216"><path d="M11.475 106.223c29.978-28.665 2.623-46.377-14.802-51.65l-30.457 2.374c11.285-39.834 38.187-28.479 59.716-64.44 17.223-28.769 4.771-55.545-3.608-65.337-2.982-4.283-13.798-14.15-33.205-19.352-19.406-5.202-32.88-1.121-37.19 1.57C1.47-77.848-11.183-57.474-23.7-48.882-133.792 7.103-83.728 90.106-37.169 101.682l63.622 18.837c.763-4.874-6.381-7.16-13.867-8.866-5.989-1.365-3.237-4.189-1.112-5.43z" fill="url(#paint3_linear_3_247)"/></mask><g mask="url(#b)"><path d="M-17.097 98.783c-6.613 2.122-9.215 5.092-9.69 6.312l-6.721-1.99-2.555-37.311C-35 54.547-27.05 36.158-1.184 55.378 31.147 79.403-8.83 96.13-17.097 98.783z" fill="#FF7E22"/></g><mask id="c" style="mask-type:alpha" maskUnits="userSpaceOnUse" x="-90" y="-95" width="125" height="216"><path d="M11.475 106.223c29.978-28.665 2.623-46.377-14.802-51.65l-30.457 2.374c11.285-39.834 38.187-28.479 59.716-64.44 17.223-28.769 4.771-55.545-3.608-65.337-2.982-4.283-13.798-14.15-33.205-19.352-19.406-5.202-32.88-1.121-37.19 1.57C1.47-77.848-11.183-57.474-23.7-48.882-133.792 7.103-83.728 90.106-37.169 101.682l63.622 18.837c.763-4.874-6.381-7.16-13.867-8.866-5.989-1.365-3.237-4.189-1.112-5.43z" fill="url(#paint4_linear_3_247)"/></mask><g mask="url(#c)"><path d="M10.43-58.499C5.668-86.976-31.002-91.793-48.742-90.64c10.662-9.595 52.154-9.041 75.912 19.246C50.93-43.107 35.668-13.96 26.773.577 17.878 15.116 3.498 20.04-11.97 30.932c-12.373 8.714-20.227 21.611-22.608 26.97 2.891 4.937 4.546 33.65 5.011 47.391l-9.691-2.87c-57.417-51.855.18-89.039 12.735-97.563 12.555-8.524 42.904-27.762 36.952-63.359z" fill="url(#paint5_linear_3_247)"/></g></g><g clip-path="url(#clip1_3_247)"><path d="M77.48 55.559c3.981-21.744-10.164-34.79-18.09-39.125 2.799-5.994.465-13.28-1.215-16.051C49.684 5.1 46.506 17.906 45.979 23.719c-1.255-4.056-.412-8.593.323-10.308-6.38 13.255-15.675 15.313-19.682 14.638-38.218-.4-57.075 20.168-61.726 30.502l33.55-3.881c24.952 5 26.795 16.632 27.922 20.888 1.127 4.257.744 6.701 5.797 9.22 5.052 2.52 15.997 1.838 22.384-3.605 5.11-4.354 11.61-.428 14.087 1.954 8.645-9.038-1.24-14.523-11.737-15.073-8.397-.44-10.459-3.267-10.459-3.267-5.07-7.641-2.377-15.143 1.38-12.724 10.198 6.567 24.023 5.067 29.661 3.495z" fill="#FF7E21"/><path d="M59.69 16.598c2.953-5.98-.01-13.485-2.042-16.372-2.632 3.791-7.911 13.288-7.974 20.947l10.017-4.575z" fill="url(#paint6_linear_3_247)"/><path d="M68.914 34.803c-1.344-6.237-6.507-6.028-8.921-5.144-2.11 4.047 1.64 7.715 3.778 9.043 2.274 1.3 6.486 2.338 5.143-3.9z" fill="#FFD5A1"/><path d="M11.122 106.609c30.003-28.887 2.721-46.636-14.67-51.9l-30.424 2.453c11.357-40.077 38.2-28.718 59.782-64.924 17.264-28.964 4.886-55.86-3.46-65.688-2.97-4.3-13.751-14.198-33.122-19.386-19.371-5.188-32.836-1.055-37.147 1.66 49.45 12.726 36.77 33.24 24.248 41.906C-133.746 7.264-83.926 90.612-37.45 102.15l63.501 18.802c.773-4.904-6.357-7.186-13.83-8.885-5.978-1.36-3.224-4.205-1.1-5.458z" fill="url(#paint7_radial_3_247)"/><path d="M11.122 106.609c30.003-28.887 2.721-46.636-14.67-51.9l-30.424 2.453c11.357-40.077 38.2-28.718 59.782-64.924 17.264-28.964 4.886-55.86-3.46-65.688-2.97-4.3-13.751-14.198-33.122-19.386-19.371-5.188-32.836-1.055-37.147 1.66 49.45 12.726 36.77 33.24 24.248 41.906C-133.746 7.264-83.926 90.612-37.45 102.15l63.501 18.802c.773-4.904-6.357-7.186-13.83-8.885-5.978-1.36-3.224-4.205-1.1-5.458z" fill="url(#paint8_linear_3_247)"/><mask id="d" style="mask-type:alpha" maskUnits="userSpaceOnUse" x="-90" y="-95" width="125" height="216"><path d="M11.475 106.223c29.978-28.665 2.623-46.377-14.802-51.65l-30.457 2.374c11.285-39.834 38.187-28.479 59.716-64.44 17.223-28.769 4.771-55.545-3.608-65.337-2.982-4.283-13.798-14.15-33.205-19.352-19.406-5.202-32.88-1.121-37.19 1.57C1.47-77.848-11.183-57.474-23.7-48.882-133.792 7.103-83.728 90.106-37.169 101.682l63.622 18.837c.763-4.874-6.381-7.16-13.867-8.866-5.989-1.365-3.237-4.189-1.112-5.43z" fill="url(#paint9_linear_3_247)"/></mask><g mask="url(#d)"><path d="M-17.097 98.783c-6.613 2.122-9.215 5.092-9.69 6.312l-6.721-1.99-2.555-37.311C-35 54.547-27.05 36.158-1.184 55.378 31.147 79.403-8.83 96.13-17.097 98.783z" fill="#FF7E22"/></g><mask id="e" style="mask-type:alpha" maskUnits="userSpaceOnUse" x="-90" y="-95" width="125" height="216"><path d="M11.475 106.223c29.978-28.665 2.623-46.377-14.802-51.65l-30.457 2.374c11.285-39.834 38.187-28.479 59.716-64.44 17.223-28.769 4.771-55.545-3.608-65.337-2.982-4.283-13.798-14.15-33.205-19.352-19.406-5.202-32.88-1.121-37.19 1.57C1.47-77.848-11.183-57.474-23.7-48.882-133.792 7.103-83.728 90.106-37.169 101.682l63.622 18.837c.763-4.874-6.381-7.16-13.867-8.866-5.989-1.365-3.237-4.189-1.112-5.43z" fill="url(#paint10_linear_3_247)"/></mask><g mask="url(#e)"><path d="M10.43-58.499C5.668-86.976-31.002-91.793-48.742-90.64c10.662-9.595 52.153-9.041 75.912 19.246C50.93-43.107 35.668-13.96 26.773.577 17.877 15.116 3.498 20.04-11.97 30.932c-12.373 8.714-20.227 21.611-22.608 26.97 2.891 4.937 4.545 33.65 5.011 47.391l-9.692-2.87c-57.416-51.855.18-89.039 12.736-97.563 12.555-8.524 42.904-27.762 36.952-63.359z" fill="url(#paint11_linear_3_247)"/></g></g></g><defs><linearGradient id="paint0_linear_3_247" x1="57.698" y1=".241" x2="50.467" y2="24.664" gradientUnits="userSpaceOnUse"><stop stop-color="#E85718"/><stop offset=".776" stop-color="#FF7E21"/></linearGradient><linearGradient id="paint2_linear_3_247" x1="7.795" y1="-87.339" x2="-62.938" y2="22.42" gradientUnits="userSpaceOnUse"><stop offset=".486" stop-color="#FF761B"/><stop offset="1" stop-color="#F96514" stop-opacity="0"/></linearGradient><linearGradient id="paint3_linear_3_247" x1="25.865" y1="4.219" x2="-40.205" y2="100.834" gradientUnits="userSpaceOnUse"><stop stop-color="#FF751A"/><stop offset="1" stop-color="#E75718"/></linearGradient><linearGradient id="paint4_linear_3_247" x1="25.865" y1="4.219" x2="-40.205" y2="100.834" gradientUnits="userSpaceOnUse"><stop stop-color="#FF751A"/><stop offset="1" stop-color="#E75718"/></linearGradient><linearGradient id="paint5_linear_3_247" x1="4.241" y1="-89.9" x2="-51.62" y2="98.763" gradientUnits="userSpaceOnUse"><stop stop-color="#FF7E22"/><stop offset=".316" stop-color="#FF7E22"/></linearGradient><linearGradient id="paint6_linear_3_247" x1="57.698" y1=".241" x2="50.467" y2="24.664" gradientUnits="userSpaceOnUse"><stop stop-color="#E85718"/><stop offset=".776" stop-color="#FF7E21"/></linearGradient><linearGradient id="paint8_linear_3_247" x1="7.795" y1="-87.339" x2="-62.938" y2="22.42" gradientUnits="userSpaceOnUse"><stop offset=".486" stop-color="#FF761B"/><stop offset="1" stop-color="#F96514" stop-opacity="0"/></linearGradient><linearGradient id="paint9_linear_3_247" x1="25.865" y1="4.219" x2="-40.205" y2="100.834" gradientUnits="userSpaceOnUse"><stop stop-color="#FF751A"/><stop offset="1" stop-color="#E75718"/></linearGradient><linearGradient id="paint10_linear_3_247" x1="25.865" y1="4.219" x2="-40.205" y2="100.834" gradientUnits="userSpaceOnUse"><stop stop-color="#FF751A"/><stop offset="1" stop-color="#E75718"/></linearGradient><linearGradient id="paint11_linear_3_247" x1="4.241" y1="-89.9" x2="-51.62" y2="98.763" gradientUnits="userSpaceOnUse"><stop stop-color="#FF7E22"/><stop offset=".316" stop-color="#FF7E22"/></linearGradient><radialGradient id="paint1_radial_3_247" cx="0" cy="0" r="1" gradientUnits="userSpaceOnUse" gradientTransform="rotate(127.774 -7.596 38.179) scale(52.4568 82.0942)"><stop stop-color="#FF751A"/><stop offset=".717" stop-color="#E75718"/></radialGradient><radialGradient id="paint7_radial_3_247" cx="0" cy="0" r="1" gradientUnits="userSpaceOnUse" gradientTransform="rotate(127.774 -7.596 38.179) scale(52.4568 82.0942)"><stop stop-color="#FF751A"/><stop offset=".717" stop-color="#E75718"/></radialGradient><clipPath id="clip0_3_247"><path fill="#fff" d="M0 0h92v90H0z"/></clipPath><clipPath id="clip1_3_247"><path fill="#fff" transform="translate(24)" d="M0 0h55v86H0z"/></clipPath></defs></svg>