<svg width="20" height="24" fill="none" xmlns="http://www.w3.org/2000/svg"><path d="M18.889 7.556h-3.333V6.444a5.555 5.555 0 10-11.112 0v1.112H1.111A1.111 1.111 0 000 8.665v11.112a3.334 3.334 0 003.333 3.333h13.334A3.334 3.334 0 0020 19.778V8.667a1.111 1.111 0 00-1.111-1.111zM5.556 6.444a4.445 4.445 0 018.888 0v1.112H5.556V6.444zm13.333 13.334A2.223 2.223 0 0116.667 22H3.333a2.223 2.223 0 01-2.222-2.222V8.667h3.333v1.666a.556.556 0 001.112 0V8.667h8.888v1.666a.556.556 0 001.112 0V8.667h3.333v11.11z" fill="#fff"/></svg>