<svg width="30" height="30" fill="none" xmlns="http://www.w3.org/2000/svg"><g clip-path="url(#clip0_1_918)"><path d="M15.009.018A14.972 14.972 0 1029.982 14.99 14.992 14.992 0 0015.009.018zm7.668 11.978l-8.684 8.686a1.871 1.871 0 01-2.647 0l-4.005-4.006a1.919 1.919 0 01-.287-2.41 1.872 1.872 0 012.883-.288l2.131 2.131a.85.85 0 001.203 0l6.81-6.808a1.871 1.871 0 012.883.287 1.92 1.92 0 01-.287 2.408z" fill="#fff"/></g><defs><clipPath id="clip0_1_918"><path fill="#fff" d="M0 0h30v30H0z"/></clipPath></defs></svg>