<svg width="30" height="30" fill="none" xmlns="http://www.w3.org/2000/svg"><path d="M23.393 7.492L16.754.822A2.771 2.771 0 0014.764 0H2.813A2.77 2.77 0 00.822.822 2.771 2.771 0 000 2.813v24.373A2.82 2.82 0 002.813 30h18.62a2.82 2.82 0 002.814-2.814V9.484c0-.76-.316-1.455-.854-1.992zm-7.65-4.173l5.184 5.185h-4.646a.533.533 0 01-.538-.538V3.32zM21.4 27.566H2.814a.35.35 0 01-.348-.348V2.814c0-.127.063-.222.095-.253.063-.064.126-.095.253-.095h10.463v5.5a3.002 3.002 0 003.003 3.003h5.47v16.25c.03.189-.127.347-.348.347z" fill="#000"/><path d="M19.03 23.361l-2.37-1.359v-3.888a.869.869 0 00-.38-.696l-3.35-1.928v-2.592a.783.783 0 00-.79-.79.783.783 0 00-.79.79v2.592l-3.352 1.928c-.253.127-.379.411-.379.696v3.888l-2.37 1.36c-.19.094-.317.284-.38.473a.802.802 0 00.063.6.78.78 0 001.075.285l2.37-1.359 3.352 1.928a.841.841 0 00.379.095.75.75 0 00.38-.095l3.35-1.928 2.371 1.36c.38.22.854.063 1.075-.285a.973.973 0 00.095-.6c-.032-.19-.19-.348-.348-.475zm-7.713-2.623v2.529l-2.18-1.265v-2.529l2.18 1.265zm2.972-2.624l-2.181 1.264-2.182-1.264 2.182-1.265 2.181 1.265zm.79 1.36v2.528l-2.181 1.265v-2.53l2.181-1.264z" fill="#000"/></svg>