<svg width="91" height="60" fill="none" xmlns="http://www.w3.org/2000/svg"><path fill-rule="evenodd" clip-rule="evenodd" d="M36.688 21.346c1.148-2.921 2.927-5.665 5.321-7.715-3.677-2.928-6.824-2.04-10.686 0-2.654 1.4-5.342.695-7.401-.395L14.66 29.28l6.435 6.436.625-.628c2.901-2.9 7.858-1.388 8.684 2.602 3.257-1.34 6.904.937 7.095 4.482 3.278-.534 6.04 1.999 5.984 5.29 2.483-.092 4.641 1.442 5.262 3.852.532-.56 1.372-.632 1.934-.07l1.278 1.28c1.795 1.794 5.163-.08 3.654-2.928L49 42.984c-1.228-1.229.638-3.095 1.866-1.866l8.126 8.125c2.31 2.31 5.04-1.316 3.926-2.567l-9.499-9.5c-1.228-1.227.64-3.093 1.867-1.866 3.449 3.452 6.904 6.918 10.356 10.356 2.311 2.311 4.673-1.53 3.438-2.765l-3.095-3.099-.04-.037v-.003l-.007-.007-.018-.015-.02-.024-.025-.024-.005-.004L49.5 23.15c-2.159 1.009-4.216 3.687-5.42 5.671-1.058 1.798-2.424 3.595-4.603 4.035-1.808.365-3.327-.534-3.993-2.237-.691-1.763-.562-4.792 1.204-9.274zM25.236 10.96c1.454.755 3.222 1.204 4.86.341 5.142-2.713 9.444-3.355 14.103.724 3.75-2.3 8.561-3.115 12.728-1.48a10.18 10.18 0 013.293 2.067l4.456-1.128-1.519-2.63a1.32 1.32 0 01.487-1.796l9.142-5.278a1.317 1.317 0 011.793.483l15.781 27.32c.365.628.15 1.44-.478 1.804l-9.145 5.28c-.684.397-1.496.114-1.853-.573l-1.749-3.029-8.229 5.931 2.04 2.039c3.209 3.21-.977 9.472-5.35 7.74-.912 2.862-4.2 4.874-7.063 3.387-.798 2.362-3.347 4.238-5.888 3.697-.724 3.397-5.273 5.523-8.16 3.103-3.072 1.88-7.145.072-7.762-3.543-3.224 1.11-6.626-1.16-6.82-4.587a5.15 5.15 0 01-5.99-4.965c-4.495.49-7.427-4.668-4.651-8.252l-5.967-5.967-1.642 2.84c-.357.688-1.17.97-1.852.573L.656 29.78a1.323 1.323 0 01-.478-1.803L15.959.656a1.318 1.318 0 011.793-.482l9.142 5.276c.628.36.847 1.17.485 1.797l-2.143 3.712zm-7.654-7.844l6.859 3.96L9.984 32.117l-6.86-3.962 14.457-25.04zm48.463 10.742l-5.922 1.498a1.332 1.332 0 01-1.312-.409c-.735-.84-1.718-1.505-2.841-1.947-4.163-1.63-9.03-.18-12.298 2.68-1.812 1.588-3.407 3.777-4.528 6.625-1.492 3.785-1.679 6.14-1.204 7.358.17.525.593.698 1.023.614 1.312-.26 2.138-1.61 2.782-2.692 1.565-2.626 4.718-6.803 7.945-7.233a1.33 1.33 0 011.115.375l16.214 16.377 8.792-6.332-9.766-16.915zm6.91-9.135L66.096 8.68l14.456 25.045 6.862-3.962-14.46-25.041zm-26.46 52.43c1.738.934 4.254-1.36 3.435-2.636-.445-.68-.406-.694-1.055-1.343a5.138 5.138 0 01-1.471 3.071l-.908.908zM42.254 50.6l-2.53 2.554c-1.717 2.521 1.752 5.286 3.851 3.188l1.964-1.964c2.144-2.144-.778-5.655-3.285-3.778zm-1.884-1.87c1.786-2.473-1.636-5.42-3.803-3.25-1.194 1.193-2.376 2.43-3.584 3.639-1.716 2.456 1.673 5.37 3.833 3.21 1.212-1.212 2.287-2.405 3.554-3.6zm-5.947-4.84c1.715-2.48-1.685-5.356-3.833-3.209-1.222 1.221-2.37 2.477-3.608 3.715-1.797 1.709 1.495 5.497 3.857 3.134 1.197-1.197 2.38-2.435 3.584-3.64zm-9.505-1.186c.15-.205.318-.403.506-.59l2.102-2.102c1.482-2.532-1.87-5.123-3.937-3.056-.68.679-1.353 1.349-2.023 2.026-2.22 2.22.905 5.686 3.352 3.722z" fill="#fff"/></svg>