<svg width="231" height="36" fill="none" xmlns="http://www.w3.org/2000/svg"><path d="M219.038 12.68c.506 0 1.021-.232 1.078-.259l9.995-5.007c.603-.37.708-.765.697-1.035-.028-.666-.768-1.075-.917-1.15L219.893.22c-.982-.437-1.533-.13-1.743.15-.416.556-.171 1.48-.118 1.66l1.522 4.29-1.517 4.522c-.176.66-.137 1.124.113 1.448.137.178.402.391.888.391zm10.87-6.263s-.025.083-.235.212l-9.948 4.981c-.093.042-.427.17-.687.17-.1 0-.16-.02-.175-.04-.004-.005-.099-.136.036-.64l1.607-4.79-1.618-4.56c-.082-.283-.111-.719-.017-.845.034-.045.189-.072.638.125l9.976 5c.218.115.419.312.423.387z" fill="#FF6719"/><path d="M153.999 35.835h1.933v-.9h-1.933v.9zm3.933 0h2v-.9h-2v.9zm4 0h2v-.9h-2v.9zm4 0h2v-.9h-2v.9zm4 0h2v-.9h-2v.9zm4 0h2v-.9h-2v.9zm4 0h2v-.9h-2v.9zm4 0h2v-.9h-2v.9zm4 0h2v-.9h-2v.9zm4.075-.107a6.405 6.405 0 002.009-.738l-.446-.78a5.526 5.526 0 01-1.728.634l.165.884zm3.666-2.09a6.466 6.466 0 001.13-1.818l-.833-.342a5.55 5.55 0 01-.973 1.564l.676.595zm1.6-3.906c.006-.115.01-.23.01-.347v-1.677h-.9v1.677c0 .1-.002.2-.008.298l.898.05zm-.891-4.024h.9v-2h-.9v2zm0-4h.9v-2h-.9v2zm0-4h.9v-2h-.9v2zm0-4h.9v-1.377c0-.194.01-.385.03-.574l-.896-.094a6.396 6.396 0 00-.035.668l.001 1.377zm1.424-3.724a5.591 5.591 0 011.048-1.514l-.646-.627a6.465 6.465 0 00-1.217 1.758l.815.383zm2.531-2.609a5.514 5.514 0 011.757-.549l-.121-.892a6.387 6.387 0 00-2.043.638l.407.803zm3.694-.599h2l-.001-.9h-2l.001.9zm4-.002h2l-.001-.9h-2l.001.9zm4-.003h2l-.001-.9h-2l.001.9zm4-.002h2l-.001-.9h-2l.001.9zm4-.002h2l-.001-.9h-2l.001.9z" fill="#FF6719"/><path stroke="#FF6719" stroke-dasharray="2 2" d="M155 35.5H0"/></svg>