<svg width="120" height="183" fill="none" xmlns="http://www.w3.org/2000/svg"><circle cx="60" cy="172" r="8.5" stroke="#FF6719" stroke-width="5"/><path fill="#FF6719" d="M58 101h5v60h-5z"/><circle cx="60" cy="60" r="55" fill="#fff" stroke="#FF6719" stroke-width="10"/><path d="M91.678 62.083c-.828-7.454-6.902-10.334-10.009-10.98.345-2.22-1.17-4.364-2.013-5.103-2.393 2.352-2.186 6.821-1.783 8.763-.829-1.198-.997-2.755-.92-3.383-.83 4.924-3.759 6.488-5.178 6.655C58.844 61.584 54.537 70.088 54 73.895l10.93-4.491c8.916-.777 10.7 2.828 11.505 4.104.805 1.275.92 2.107 2.876 2.44 1.956.333 5.58-.943 7.19-3.328 1.289-1.907 3.874-1.257 4.947-.72 2.014-3.772-1.868-4.604-5.464-3.772-2.877.666-3.855-.055-3.855-.055-2.473-1.997-2.314-4.696-.805-4.27 4.096 1.153 8.61-.666 10.355-1.72z" fill="#FF7E21"/><path d="M81.947 50.735c.365-2.059-1.237-4.049-2.129-4.735-.466 1.373-1.228 4.694-.547 7l2.676-2.265z" fill="url(#paint0_linear_1_243)"/><path d="M86.623 55.834c-1.095-1.203-2.846-.845-3.584-.516-.313.962 1.347 1.49 2.216 1.632.912.13 2.463.086 1.368-1.116z" fill="#FFD5A1"/><path d="M74.506 85.658c7.264-12.654-3.754-15.894-10.171-15.932l-10.057 3.84c-.172-14.554 10.057-13.412 13.735-27.682 2.942-11.417-3.946-19.2-7.758-21.664-1.437-1.146-6.08-3.393-13.16-3.21-7.08.184-11.225 2.904-12.413 4.242 18.022-.642 15.784 7.488 12.413 11.634-31.606 29.86-6.379 52.841 10.516 52.096H81c-.23-1.719-2.873-1.776-5.574-1.604-2.16.137-1.514-1.09-.92-1.72z" fill="url(#paint1_radial_1_243)"/><path d="M74.506 85.658c7.264-12.654-3.754-15.894-10.171-15.932l-10.057 3.84c-.172-14.554 10.057-13.412 13.735-27.682 2.942-11.417-3.946-19.2-7.758-21.664-1.437-1.146-6.08-3.393-13.16-3.21-7.08.184-11.225 2.904-12.413 4.242 18.022-.642 15.784 7.488 12.413 11.634-31.606 29.86-6.379 52.841 10.516 52.096H81c-.23-1.719-2.873-1.776-5.574-1.604-2.16.137-1.514-1.09-.92-1.72z" fill="url(#paint2_linear_1_243)"/><mask id="a" style="mask-type:alpha" maskUnits="userSpaceOnUse" x="32" y="21" width="49" height="68"><path d="M74.392 85.658c7.245-12.654-3.744-15.894-10.144-15.932l-10.03 3.84c-.171-14.554 10.03-13.411 13.698-27.682 2.934-11.417-3.935-19.2-7.737-21.664-1.433-1.146-6.064-3.393-13.125-3.21-7.06.184-11.194 2.904-12.379 4.242 17.973-.642 15.742 7.488 12.38 11.634-31.522 29.86-6.362 52.842 10.488 52.096h23.325c-.229-1.719-2.865-1.776-5.559-1.604-2.155.137-1.509-1.09-.917-1.72z" fill="url(#paint3_linear_1_243)"/></mask><g mask="url(#a)"><path d="M64.02 86.002c-2.018 1.376-2.599 2.637-2.637 3.095h-2.464l-4.585-12.322c-.765-3.897.08-10.89 10.717-6.992 13.296 4.871 1.49 14.5-1.032 16.22z" fill="#FF7E22"/></g><mask id="b" style="mask-type:alpha" maskUnits="userSpaceOnUse" x="32" y="21" width="49" height="68"><path d="M74.392 85.658c7.245-12.654-3.744-15.894-10.144-15.932l-10.03 3.84c-.171-14.554 10.03-13.411 13.698-27.682 2.934-11.417-3.935-19.2-7.737-21.664-1.433-1.146-6.064-3.393-13.125-3.21-7.06.184-11.194 2.904-12.379 4.242 17.973-.642 15.742 7.488 12.38 11.634-31.522 29.86-6.362 52.842 10.488 52.096h23.325c-.229-1.719-2.865-1.776-5.559-1.604-2.155.137-1.509-1.09-.917-1.72z" fill="url(#paint4_linear_1_243)"/></mask><g mask="url(#b)"><path d="M57.6 30.238c-4.447-9.124-17.289-7.088-23.154-4.929 2.637-4.298 16.678-8.253 27.51-1.089s8.597 18.512 7.05 24.3c-1.548 5.789-5.904 8.884-10.03 14.099-3.301 4.172-4.662 9.304-4.93 11.348 1.468 1.375 4.892 10.889 6.42 15.474h-3.553c-24.53-11.749-8.826-30.031-5.445-34.158 3.381-4.126 11.691-13.64 6.132-25.045z" fill="url(#paint5_linear_1_243)"/></g><defs><linearGradient id="paint0_linear_1_243" x1="79.835" y1="46" x2="79.835" y2="53.978" gradientUnits="userSpaceOnUse"><stop stop-color="#E85718"/><stop offset=".776" stop-color="#FF7E21"/></linearGradient><linearGradient id="paint2_linear_1_243" x1="53.934" y1="21.011" x2="41.239" y2="64.872" gradientUnits="userSpaceOnUse"><stop offset=".486" stop-color="#FF761B"/><stop offset="1" stop-color="#F96514" stop-opacity="0"/></linearGradient><linearGradient id="paint3_linear_1_243" x1="69.062" y1="49.838" x2="56.434" y2="89" gradientUnits="userSpaceOnUse"><stop stop-color="#FF751A"/><stop offset="1" stop-color="#E75718"/></linearGradient><linearGradient id="paint4_linear_1_243" x1="69.062" y1="49.838" x2="56.434" y2="89" gradientUnits="userSpaceOnUse"><stop stop-color="#FF751A"/><stop offset="1" stop-color="#E75718"/></linearGradient><linearGradient id="paint5_linear_1_243" x1="52.38" y1="20.271" x2="52.38" y2="89.441" gradientUnits="userSpaceOnUse"><stop stop-color="#FF7E22"/><stop offset=".316" stop-color="#FF7E22"/></linearGradient><radialGradient id="paint1_radial_1_243" cx="0" cy="0" r="1" gradientUnits="userSpaceOnUse" gradientTransform="matrix(-6.72344 17.07894 -26.93911 -10.60508 72.897 71.903)"><stop stop-color="#FF751A"/><stop offset=".717" stop-color="#E75718"/></radialGradient></defs></svg>