<svg width="24" height="24" fill="none" xmlns="http://www.w3.org/2000/svg"><path d="M21.402 1.763A5.953 5.953 0 0017.258 0a5.624 5.624 0 00-4.089 1.643L.139 14.674a.474.474 0 00.668.67l13.03-13.031c1.87-1.87 4.963-1.815 6.896.118a5.017 5.017 0 011.486 3.47 4.678 4.678 0 01-1.366 3.427L7.822 22.359c-.924.924-3.083.996-4.378-.3-1.295-1.295-1.223-3.453-.299-4.377L14.448 6.379c.406-.407.835-.66 1.238-.731a1.24 1.24 0 011.136.361c.618.619.476 1.528-.37 2.374L6.764 18.07a.473.473 0 00.669.668l9.686-9.686c.657-.657 1.013-1.379 1.03-2.088a2.205 2.205 0 00-.66-1.623 2.208 2.208 0 00-1.57-.661h-.053c-.71.018-1.431.374-2.088 1.03L2.476 17.014c-.625.626-.989 1.628-.972 2.683a4.358 4.358 0 001.271 3.032A4.359 4.359 0 005.808 24c1.046.018 2.057-.346 2.683-.971L21.52 9.997c2.238-2.238 2.184-5.932-.119-8.234z" fill="#FF6719"/></svg>