<svg width="27" height="30" fill="none" xmlns="http://www.w3.org/2000/svg"><path d="M4.556 18.987c.19 0 .348-.031.475-.095a.621.621 0 00.285-.285.875.875 0 00.095-.411.876.876 0 00-.095-.412.621.621 0 00-.285-.284 1.056 1.056 0 00-.475-.095h-.664v1.582h.664zm5.412-.886a1.152 1.152 0 00-.443-.506 1.695 1.695 0 00-.76-.159h-.632v3.038h.633c.284 0 .538-.063.76-.158.189-.095.347-.285.474-.506a2.17 2.17 0 00.158-.855 2.853 2.853 0 00-.19-.854z" fill="#000"/><path d="M26.645 7.12L19.841.285A1.003 1.003 0 0019.114 0H3.48a1.02 1.02 0 00-1.013 1.013v12.943H1.14c-.633 0-1.139.506-1.139 1.139v7.69c0 .633.506 1.139 1.14 1.139h1.297v5.063c0 .57.474 1.013 1.013 1.013h22.436a1.02 1.02 0 001.013-1.013V7.848a.737.737 0 00-.254-.728zM2.88 21.33v-4.747h1.867c.348 0 .664.063.917.19.253.126.443.316.57.57.126.253.19.506.19.822 0 .317-.064.601-.19.823a1.31 1.31 0 01-.602.57c-.253.126-.57.19-.95.19h-.854v1.55H2.88v.032zm22.025 6.677H4.525v-4.05h12.12c.633 0 1.14-.507 1.14-1.14v-7.721c0-.633-.507-1.14-1.14-1.14H4.525V2.058h12.911v6.456a1.02 1.02 0 001.013 1.012h6.456v18.481zM7.088 21.329v-4.747h1.71c.474 0 .885.095 1.233.285.348.19.602.474.791.822.19.349.285.792.285 1.266 0 .507-.095.918-.285 1.266-.19.348-.443.633-.79.823-.349.19-.76.284-1.235.284H7.088zm7.722-2.785v.823h-1.962v1.962h-1.013v-4.747H15v.823h-2.152v1.139h1.962z" fill="#000"/></svg>