<svg width="59" height="60" fill="none" xmlns="http://www.w3.org/2000/svg"><path d="M51.371 46.073H6.896a6.963 6.963 0 000 13.927H51.37a6.964 6.964 0 000-13.927zm0 12.493H6.896a5.53 5.53 0 010-11.059H51.37a5.53 5.53 0 010 11.059zM8.067 49.148a3.888 3.888 0 100 7.777 3.888 3.888 0 000-7.776zm0 6.342a2.454 2.454 0 110-4.908 2.454 2.454 0 010 4.908zM18.6 49.148a3.888 3.888 0 100 7.776 3.888 3.888 0 000-7.776zm0 6.342a2.454 2.454 0 110-4.908 2.454 2.454 0 010 4.908zm10.534-6.342a3.888 3.888 0 100 7.776 3.888 3.888 0 000-7.776zm0 6.342a2.454 2.454 0 11-.002-4.908 2.454 2.454 0 01.002 4.908zm10.533-6.342a3.889 3.889 0 100 7.778 3.889 3.889 0 000-7.778zm0 6.342a2.454 2.454 0 11-.001-4.908 2.454 2.454 0 010 4.908zM50.2 49.148a3.888 3.888 0 10-.002 7.776 3.888 3.888 0 00.002-7.776zm0 6.342a2.454 2.454 0 11-.001-4.908 2.454 2.454 0 01.001 4.908zM7.081 44.298h20.526a.717.717 0 00.717-.717V23.054a.718.718 0 00-.718-.716H7.082a.718.718 0 00-.717.716V43.58a.717.717 0 00.717.719zm7.52-20.525h5.487v7.782H14.6v-7.782zm-6.803 0h5.369v8.5a.718.718 0 00.717.718h6.921a.718.718 0 00.717-.717v-8.502h5.368v19.092H7.798V23.773zm22.144-.719V43.58a.718.718 0 00.717.717h20.525a.716.716 0 00.718-.717V23.054a.718.718 0 00-.718-.716H30.66a.718.718 0 00-.717.716zm8.237.718h5.486v7.783H38.18v-7.783zm-6.803 0h5.369v8.502a.718.718 0 00.717.717h6.92a.717.717 0 00.718-.717v-8.502h5.369v19.092H31.376V23.772zm-11.9-11.433l1.699.24c.17.591.406 1.16.703 1.699l-1.031 1.371a.717.717 0 00.066.936l1.911 1.91a.718.718 0 00.936.068l1.37-1.032c.54.298 1.11.533 1.702.703l.24 1.699a.718.718 0 00.71.616h2.703a.717.717 0 00.71-.616l.24-1.7a8.145 8.145 0 001.698-.703l1.371 1.032a.717.717 0 00.936-.067l1.917-1.911a.717.717 0 00.067-.936l-1.031-1.371a8.227 8.227 0 00.703-1.699l1.699-.24a.716.716 0 00.616-.71V8.923a.717.717 0 00-.616-.71l-1.706-.24a8.217 8.217 0 00-.702-1.698l1.03-1.371a.718.718 0 00-.066-.936l-1.909-1.913a.717.717 0 00-.936-.067l-1.37 1.03a8.221 8.221 0 00-1.7-.702l-.24-1.699a.718.718 0 00-.71-.617h-2.704a.718.718 0 00-.71.617l-.24 1.699a8.26 8.26 0 00-1.699.703l-1.37-1.031a.717.717 0 00-.936.067l-1.912 1.91a.717.717 0 00-.066.936l1.03 1.37a8.252 8.252 0 00-.702 1.702l-1.699.24a.717.717 0 00-.616.71v2.703a.716.716 0 00.615.71l-.002.003zm.817-2.79l1.558-.22a.717.717 0 00.602-.553 6.78 6.78 0 01.893-2.161.718.718 0 00-.03-.817l-.944-1.256 1.03-1.03 1.252.943a.716.716 0 00.815.032 6.776 6.776 0 012.162-.895.717.717 0 00.554-.601l.22-1.558h1.457l.22 1.558a.717.717 0 00.554.601 6.786 6.786 0 012.161.895.716.716 0 00.816-.032l1.256-.946 1.03 1.03-.946 1.26a.718.718 0 00-.032.814 6.8 6.8 0 01.894 2.161.716.716 0 00.602.554l1.558.22v1.457l-1.558.22a.718.718 0 00-.601.554 6.784 6.784 0 01-.894 2.161.717.717 0 00.032.815l.945 1.257-1.03 1.03-1.256-.948a.716.716 0 00-.815-.032 6.8 6.8 0 01-2.162.894.716.716 0 00-.553.602l-.22 1.558h-1.458l-.22-1.558a.715.715 0 00-.554-.602 6.809 6.809 0 01-2.161-.894.716.716 0 00-.816.032l-1.256.945-1.03-1.03.945-1.256a.717.717 0 00.033-.815 6.793 6.793 0 01-.895-2.162.717.717 0 00-.602-.553l-1.557-.22.001-1.453zm8.84 5.069a4.346 4.346 0 10.009-8.693 4.346 4.346 0 00-.008 8.693zm-2.057-6.401a2.91 2.91 0 114.115 4.116 2.91 2.91 0 01-4.115-4.116z" fill="#fff"/></svg>