<svg width="247" height="271" fill="none" xmlns="http://www.w3.org/2000/svg"><path d="M54.037 72.904c3.427-22.916-6.635-30.97-12.095-32.132a538.656 538.656 0 00-4.284 10.711c-2.016 5.231-7.308 5.23-17.387 2.242-10.08-2.99-10.08-12.953 2.52-32.631s17.387-6.975 35.782-7.971C73.29 12.326 79.656 34.877 81 46.252 70.585 64.684 50.61 95.82 54.037 72.904zm48.145 128.988c1.988 0 9.277-5.921 12.672-8.881 1.491-5.18-8.647-16.232-22.363-8.141-17.145 10.114-2.981 17.022-3.23 20.968-.198 3.158 3.893 8.552 5.964 10.854 2.319.987 7.603 2.369 10.187 0 3.231-2.96-.497-6.167-3.23-7.893-2.733-1.727-2.485-6.907 0-6.907zm81.176 8.723c1.175-5.172-1.306-19.232-2.693-25.615-5.221 5.554-15.665 17.011-15.665 18.403 0 1.741 9.057 20.891 13.462 22.88 3.525 1.592 8.649.166 10.77-.746 2.693-4.725-2.447-6.715-3.916-7.461-1.469-.746-3.427-.995-1.958-7.461z" fill="#E75718"/><path d="M183.358 210.615c1.175-5.172-1.306-19.232-2.693-25.615-5.221 5.554-15.665 17.011-15.665 18.403 0 1.741 9.057 20.891 13.462 22.88 3.525 1.592 8.649.166 10.77-.746 2.693-4.725-2.447-6.715-3.916-7.461-1.469-.746-3.427-.995-1.958-7.461z" fill="url(#paint0_linear_1_932)"/><path d="M230.827 150.184c-19.914-27.294-49.263-25.338-62.411-21.115-3.7-9.408-14.233-14.487-19.074-15.541-3.706 14.378 7.147 31.375 13.036 38.076-5.817-2.876-8.403-7.822-9.531-10.442 7.981 21.022-9.427 5.868-10.427 3.118-17.496-18.58-60.438-42.492-92.233 10.498-.186 7.37-.186 22.632-1.5 31.995-5.748 11.497-2.749 23.745 10.749 41.992 8.748 2.749 15.597 1.899 16.997-1.5 1-2.416.75-7.349-8.249-7.748-1.833-1.417-5.199-5.2-3.999-8.999 10.248-4.999 25.195-11.048 25.995-22.246 2.166 1.167 29.894 10.248 33.494 9.249-.334 8.831.55 27.145 6.749 29.744 7.748 3.249 9.748.571 9.748 3.249 0 2 8.998 3.75 10.248 1 .454-1 3.249-3.249 0-6.998-1.896-2.188-16.747-1.25-5.499-13.998 23.496 2.5 29.785-5.515 30.728-8.998-1.484-12.748 16.497-22.13 20.089-22.13 18.541 0 30.898-21.303 35.09-29.206z" fill="#FF7E21"/><path d="M230.827 150.184c-19.914-27.294-49.263-25.338-62.411-21.115-3.7-9.408-14.233-14.487-19.074-15.541-3.706 14.378 7.147 31.375 13.036 38.076-5.817-2.876-8.403-7.822-9.531-10.442 7.981 21.022-9.427 5.868-10.427 3.118-17.496-18.58-60.438-42.492-92.233 10.498-.186 7.37-.186 22.632-1.5 31.995-5.748 11.497-2.749 23.745 10.749 41.992 8.748 2.749 15.597 1.899 16.997-1.5 1-2.416.75-7.349-8.249-7.748-1.833-1.417-5.199-5.2-3.999-8.999 10.248-4.999 25.195-11.048 25.995-22.246 2.166 1.167 29.894 10.248 33.494 9.249-.334 8.831.55 27.145 6.749 29.744 7.748 3.249 9.748.571 9.748 3.249 0 2 8.998 3.75 10.248 1 .454-1 3.249-3.249 0-6.998-1.896-2.188-16.747-1.25-5.499-13.998 23.496 2.5 29.785-5.515 30.728-8.998-1.484-12.748 16.497-22.13 20.089-22.13 18.541 0 30.898-21.303 35.09-29.206z" fill="url(#paint1_linear_1_932)"/><mask id="a" style="mask-type:alpha" maskUnits="userSpaceOnUse" x="45" y="113" width="186" height="120"><path d="M230.828 150.184c-19.914-27.294-49.263-25.338-62.411-21.115-3.7-9.408-14.233-14.487-19.074-15.54-3.706 14.377 7.147 31.374 13.036 38.076-5.817-2.876-8.403-7.823-9.531-10.443 7.981 21.022-9.427 5.868-10.427 3.118-17.496-18.579-60.438-42.492-92.233 10.499-.186 7.369-.186 22.631-1.5 31.994-5.748 11.497-2.749 23.745 10.749 41.992 8.748 2.749 15.597 1.899 16.997-1.5 1-2.416.75-7.348-8.249-7.748-1.833-1.417-5.199-5.2-3.999-8.999 10.248-4.999 25.195-11.048 25.995-22.246 2.166 1.167 29.894 10.248 33.494 9.249-.334 8.831.55 27.145 6.749 29.744 7.748 3.249 9.748.571 9.748 3.249 0 2 8.998 3.75 10.248 1 .454-1 3.249-3.249 0-6.998-1.896-2.188-16.747-1.25-5.499-13.998 23.496 2.5 29.785-5.515 30.728-8.998-1.484-12.748 16.497-22.13 20.089-22.13 18.541 0 30.898-21.302 35.09-29.206z" fill="#FF7E21"/></mask><g mask="url(#a)"><path d="M150.67 194.021c12.997-8.398 24.578-1.166 28.744 3.5l-1.5 14.497c-11.581 4.583-34.743 11.348-34.743 1.75 0-9.599 4.999-17.164 7.499-19.747z" fill="#FFD5A1"/></g><path d="M75.07 91.121c-36.538 25.947-15.224 41.415 0 45.906H117c-31.697 13.889-97.337 33.033-106.322-1.497-11.23-43.161 39.434-55.885 45.424-65.865 5.99-9.98 10.982-41.415-8.735-48.152-19.717-6.736-35.94 20.708-23.96 27.943 9.584 5.788 16.639-3.742 18.968-9.23 1.082 8.399-1.747 24.699-21.713 22.703C-4.296 60.434-1.801 33.739 3.44 25.505c5.24-8.233 29.95-31.186 71.63-24.2 41.679 6.985 45.673 57.382 0 89.816z" fill="#FF7E21"/><path d="M75.07 91.121c-36.538 25.947-15.224 41.415 0 45.906H117c-31.697 13.889-97.337 33.033-106.322-1.497-11.23-43.161 39.434-55.885 45.424-65.865 5.99-9.98 10.982-41.415-8.735-48.152-19.717-6.736-35.94 20.708-23.96 27.943 9.584 5.788 16.639-3.742 18.968-9.23 1.082 8.399-1.747 24.699-21.713 22.703C-4.296 60.434-1.801 33.739 3.44 25.505c5.24-8.233 29.95-31.186 71.63-24.2 41.679 6.985 45.673 57.382 0 89.816z" fill="url(#paint2_linear_1_932)"/><path d="M168.416 129.069c-3.7-9.408-14.233-14.487-19.074-15.541 1.673 6.731 7.026 22.267 15.049 30.565l4.025-15.024z" fill="url(#paint3_linear_1_932)"/><path d="M182.278 132.277c.579-10.094-6.86-19.116-10.816-22.099-1.298 6.813-2.942 23.162.871 34.057l9.945-11.958z" fill="url(#paint4_linear_1_932)"/><path d="M197.941 137.712c-7.136-3.962-11.911 1.2-13.406 4.276 1.761 5.449 8.806 4.921 12.109 3.977 3.406-1.101 8.433-4.292 1.297-8.253z" fill="#FFD5A1"/><defs><linearGradient id="paint0_linear_1_932" x1="172.536" y1="198.516" x2="166.336" y2="221.235" gradientUnits="userSpaceOnUse"><stop stop-color="#FF7E21"/><stop offset="1" stop-color="#E75718"/></linearGradient><linearGradient id="paint1_linear_1_932" x1="88.901" y1="167.746" x2="72.262" y2="187.709" gradientUnits="userSpaceOnUse"><stop stop-color="#FF7E21"/><stop offset="1" stop-color="#E75718"/></linearGradient><linearGradient id="paint2_linear_1_932" x1="63.59" y1="45.714" x2="167.036" y2="-11.338" gradientUnits="userSpaceOnUse"><stop stop-color="#FF7E21"/><stop offset=".521" stop-color="#E75718"/></linearGradient><linearGradient id="paint3_linear_1_932" x1="149.402" y1="113.494" x2="168.774" y2="147.046" gradientUnits="userSpaceOnUse"><stop stop-color="#E85718"/><stop offset=".776" stop-color="#FF7E21"/></linearGradient><linearGradient id="paint4_linear_1_932" x1="171.531" y1="110.172" x2="175.076" y2="148.752" gradientUnits="userSpaceOnUse"><stop stop-color="#E85718"/><stop offset=".776" stop-color="#FF7E21"/></linearGradient></defs></svg>