<svg width="155" height="152" fill="none" xmlns="http://www.w3.org/2000/svg"><path d="M115.988 18.262c7.79 10.359-1.979 13.503-7.838 13.78 9.144 7.84 16.863 6.77 20.188 3.445 3.325-3.327 1.187-11.523-2.256-18.65-3.444-7.128-13.894-12.948-22.325-10.097-8.432 2.85-7.957 16.868-7.6 14.017.356-2.851 10.093-15.443 19.831-2.495z" fill="#EB5E19"/><path d="M87.314 71.445c-2.68 2.26-1.81 6.433-1.04 8.237.578 8.708 4.854 25.959 17.335 25.3 15.6-.824 27.272-7.884 25.885-32.007-1.387-24.122-38.482-40.008-30.623-54.834 7.858-14.827 23.343-4.119 25.539 10.12 1.756 11.39-10.131 7.02-16.295 3.412 22.997 28.123 33.166-4.119 16.988-22.24-16.179-18.121-34.668-5.295-37.789-1.177l-.017.023c-3.135 4.138-11.866 15.662-1.023 34.572 10.863 18.945 4.392 25.77 1.04 28.594z" fill="#E75718"/><path d="M87.314 71.445c-2.68 2.26-1.81 6.433-1.04 8.237.578 8.708 4.854 25.959 17.335 25.3 15.6-.824 27.272-7.884 25.885-32.007-1.387-24.122-38.482-40.008-30.623-54.834 7.858-14.827 23.343-4.119 25.539 10.12 1.756 11.39-10.131 7.02-16.295 3.412 22.997 28.123 33.166-4.119 16.988-22.24-16.179-18.121-34.668-5.295-37.789-1.177l-.017.023c-3.135 4.138-11.866 15.662-1.023 34.572 10.863 18.945 4.392 25.77 1.04 28.594z" fill="url(#paint0_linear_1_350)"/><path d="M30.46 36.702c9.323-12.779 23.064-11.863 29.22-9.886 1.732-4.405 6.664-6.783 8.93-7.276 1.735 6.732-3.346 14.69-6.103 17.827 2.723-1.346 3.934-3.662 4.462-4.889-3.737 9.842.504 15.324 2.829 17.071 6.964 5.078 10.439 15.907 11.306 20.687.374.655 3.51 4.018 5.032 5.617 2.434 3.277 13.965 8.075 19.427 10.065 7.302 5.43 3.511 14.511.702 18.373-1.498 3.089-.624 5.656 0 6.554 8.239-1.873 13.341-1.873 14.862-1.639 6.554.702 7.724 4.33 7.022 5.5-.562.937-4.213 1.327-5.968 1.405-8.66-2.224-19.31-.937-21.651-.702-1.872.187-4.135-1.171-5.032-1.873-3.557-1.872-7.255-1.638-8.66-1.287-15.916 2.808-22.703-.117-23.873-.234-.937-.094-1.015.507-.937.819-7.302-1.779-17.944-1.053-22.352-.468-1.404-3.628 4.096-5.617 5.617-5.617 1.218 0 7.841 1.794 11.001 2.691-24.81-15.728-14.394-26.76-6.085-30.31-4.962-7.022-4.799-11.82-4.096-13.341 1.99-5.852 2.457-15.413.775-15.413-8.68 0-14.466-9.973-16.429-13.674z" fill="#FF7E21"/><path d="M30.46 36.702c9.323-12.779 23.064-11.863 29.22-9.886 1.732-4.405 6.664-6.783 8.93-7.276 1.735 6.732-3.346 14.69-6.103 17.827 2.723-1.346 3.934-3.662 4.462-4.889-3.737 9.842.504 15.324 2.829 17.071 6.964 5.078 10.439 15.907 11.306 20.687.374.655 3.51 4.018 5.032 5.617 2.434 3.277 13.965 8.075 19.427 10.065 7.302 5.43 3.511 14.511.702 18.373-1.498 3.089-.624 5.656 0 6.554 8.239-1.873 13.341-1.873 14.862-1.639 6.554.702 7.724 4.33 7.022 5.5-.562.937-4.213 1.327-5.968 1.405-8.66-2.224-19.31-.937-21.651-.702-1.872.187-4.135-1.171-5.032-1.873-3.557-1.872-7.255-1.638-8.66-1.287-15.916 2.808-22.703-.117-23.873-.234-.937-.094-1.015.507-.937.819-7.302-1.779-17.944-1.053-22.352-.468-1.404-3.628 4.096-5.617 5.617-5.617 1.218 0 7.841 1.794 11.001 2.691-24.81-15.728-14.394-26.76-6.085-30.31-4.962-7.022-4.799-11.82-4.096-13.341 1.99-5.852 2.457-15.413.775-15.413-8.68 0-14.466-9.973-16.429-13.674z" fill="url(#paint1_linear_1_350)"/><path d="M53.86 56.314c-5.69 4.613-1.593 13.454 1.167 17.298 3.265 2.07 1.983 8.315.933 11.179-7.23 16.827 10.38 21.534 13.062 21.887 2.682.353 12.712 2.353 16.327-10.473 3.615-12.826-8.864-20.358-11.896-22.593-2.425-1.789-2.488-5.06-2.216-6.472.934-11.061-10.262-16.592-17.376-10.826z" fill="#FFD5A1"/><path d="M59.68 26.816c1.733-4.405 6.664-6.783 8.931-7.276-.783 3.151-3.29 10.425-7.046 14.31l-1.884-7.034z" fill="url(#paint2_linear_1_350)"/><path d="M53.188 28.318c-.27-4.726 3.212-8.95 5.064-10.347.608 3.19 1.378 10.845-.407 15.946l-4.657-5.599z" fill="url(#paint3_linear_1_350)"/><path d="M45.859 30.863c3.34-1.855 5.576.562 6.276 2.002-.824 2.55-4.123 2.304-5.67 1.862-1.594-.516-3.947-2.01-.606-3.864z" fill="#FFD5A1"/><path d="M56.962 75.908c-6.684-8.108-6.23-16.408-5.167-19.545-.367-.804-1.89-.796-5.057 5.67-3.166 6.467 4.617 18.62 8.905 23.888-.22 1.69 1.319 5.309 4.617 5.067 3.298-.24 5.057-4.946-3.298-15.08z" fill="#FF7E21"/><path d="M56.962 75.908c-6.684-8.108-6.23-16.408-5.167-19.545-.367-.804-1.89-.796-5.057 5.67-3.166 6.467 4.617 18.62 8.905 23.888-.22 1.69 1.319 5.309 4.617 5.067 3.298-.24 5.057-4.946-3.298-15.08z" fill="url(#paint4_linear_1_350)"/><path d="M79.995 65.868c.2-7.803-5.456-13.322-8.871-14.868L68 55.52c3.998 2.497 3.124 9.634 3.124 12.013 0 2.379-5.373 18.911-1.125 22.36 4.248 3.45 7.997-2.021 6.997-4.757-1-2.736-.125-5.59 0-7.255s2.749-2.26 2.999-12.013z" fill="#FF7E21"/><path d="M79.995 65.868c.2-7.803-5.456-13.322-8.871-14.868L68 55.52c3.998 2.497 3.124 9.634 3.124 12.013 0 2.379-5.373 18.911-1.125 22.36 4.248 3.45 7.997-2.021 6.997-4.757-1-2.736-.125-5.59 0-7.255s2.749-2.26 2.999-12.013z" fill="url(#paint5_linear_1_350)"/><defs><linearGradient id="paint0_linear_1_350" x1="96.675" y1="33.791" x2="78.603" y2="88.889" gradientUnits="userSpaceOnUse"><stop stop-color="#FF7E21"/><stop offset="1" stop-color="#E75718"/></linearGradient><linearGradient id="paint1_linear_1_350" x1="68.969" y1="93.615" x2="64.556" y2="133.619" gradientUnits="userSpaceOnUse"><stop stop-color="#FF7E21"/><stop offset="1" stop-color="#E75718"/></linearGradient><linearGradient id="paint2_linear_1_350" x1="68.583" y1="19.524" x2="59.513" y2="35.233" gradientUnits="userSpaceOnUse"><stop stop-color="#E85718"/><stop offset=".776" stop-color="#FF7E21"/></linearGradient><linearGradient id="paint3_linear_1_350" x1="58.22" y1="17.968" x2="56.56" y2="36.032" gradientUnits="userSpaceOnUse"><stop stop-color="#E85718"/><stop offset=".776" stop-color="#FF7E21"/></linearGradient><linearGradient id="paint4_linear_1_350" x1="54.499" y1="79.604" x2="46.498" y2="86.397" gradientUnits="userSpaceOnUse"><stop stop-color="#FF7E21"/><stop offset="1" stop-color="#E75718"/></linearGradient><linearGradient id="paint5_linear_1_350" x1="73.437" y1="78.131" x2="65.486" y2="82.746" gradientUnits="userSpaceOnUse"><stop stop-color="#FF7E21"/><stop offset="1" stop-color="#E75718"/></linearGradient></defs></svg>