<svg width="190" height="122" fill="none" xmlns="http://www.w3.org/2000/svg"><path d="M128.132 28.448c-4.445 16.554-15.49 30.52-20.458 35.433l-7.558 3.602c6.154 4.418 22.346 7.603 37.878-15 19.417-28.252 34.621-14.1 37.276-10.16 2.124 3.154-3.5 8.91-6.578 11.395 22.941-6.208 28.017-33.662 8.266-47.845-19.752-14.183-43.271 1.882-48.826 22.575z" fill="#FF7E21"/><path d="M128.132 28.448c-4.445 16.554-15.49 30.52-20.458 35.433l-7.558 3.602c6.154 4.418 22.346 7.603 37.878-15 19.417-28.252 34.621-14.1 37.276-10.16 2.124 3.154-3.5 8.91-6.578 11.395 22.941-6.208 28.017-33.662 8.266-47.845-19.752-14.183-43.271 1.882-48.826 22.575z" fill="url(#paint0_linear_58_3114)"/><path d="M15.866 95.727c2.059-.062 9.985-5.822 13.69-8.695 5.509.576 15.925 2.828 13.53 7.226-2.992 5.497-24.17 7.135-26.404 6.626-2.235-.509-8.01-3.648-7.199-6.304.811-2.656 3.81 1.223 6.383 1.147z" fill="#E75718"/><path d="M.878 65.368C13.59 47.95 32.333 49.205 40.731 51.904c2.36-6.006 9.086-9.246 12.177-9.917 2.37 9.179-4.556 20.027-8.316 24.304 3.714-1.835 5.364-4.992 6.084-6.664-5.092 13.418 6.022 3.748 6.66 1.993 11.17-11.857 38.588-27.112 58.905 6.722 4.152 8.838 4.686 31.605-26.396 51.976-2.473-3.7-6.93-13.286-4.978-22.032-5.18 1.307-16.299 2.747-19.337-1.954-19.773 16.878-43.022 10.652-52.174 5.43-2.557-2.214-.449-3.268.925-3.519 6.297 4.741 24.953-2.002 24.35-4.226-6.833.708-10.681-7.49-12.976-7.492-11.84-.004-22.098-16.11-24.777-21.157z" fill="#FF7E21"/><path d="M.878 65.368C13.59 47.95 32.333 49.205 40.731 51.904c2.36-6.006 9.086-9.246 12.177-9.917 2.37 9.179-4.556 20.027-8.316 24.304 3.714-1.835 5.364-4.992 6.084-6.664-5.092 13.418 6.022 3.748 6.66 1.993 11.17-11.857 38.588-27.112 58.905 6.722 4.152 8.838 4.686 31.605-26.396 51.976-2.473-3.7-6.93-13.286-4.978-22.032-5.18 1.307-16.299 2.747-19.337-1.954-19.773 16.878-43.022 10.652-52.174 5.43-2.557-2.214-.449-3.268.925-3.519 6.297 4.741 24.953-2.002 24.35-4.226-6.833.708-10.681-7.49-12.976-7.492-11.84-.004-22.098-16.11-24.777-21.157z" fill="url(#paint1_linear_58_3114)"/><mask id="a" style="mask-type:alpha" maskUnits="userSpaceOnUse" x="0" y="41" width="119" height="80"><path d="M.598 65.262c12.72-17.434 31.468-16.185 39.866-13.487 2.363-6.01 9.091-9.254 12.184-9.927 2.367 9.184-4.565 20.041-8.327 24.322 3.715-1.837 5.367-4.997 6.087-6.67-5.097 13.427 6.023 3.748 6.661 1.991 11.177-11.868 38.606-27.142 58.916 6.706 4.149 8.842 4.675 31.623-26.42 52.017-2.473-3.701-6.928-13.291-4.972-22.044-5.182 1.31-16.303 2.756-19.34-1.947-19.784 16.895-43.035 10.674-52.188 5.451-2.556-2.214-.447-3.27.927-3.521 6.296 4.741 24.96-2.013 24.357-4.238-6.835.712-10.681-7.491-12.976-7.491C13.53 86.424 3.275 70.31.598 65.262z" fill="#FF7E21"/><path d="M.598 65.262c12.72-17.434 31.468-16.185 39.866-13.487 2.363-6.01 9.091-9.254 12.184-9.927 2.367 9.184-4.565 20.041-8.327 24.322 3.715-1.837 5.367-4.997 6.087-6.67-5.097 13.427 6.023 3.748 6.661 1.991 11.177-11.868 38.606-27.142 58.916 6.706 4.149 8.842 4.675 31.623-26.42 52.017-2.473-3.701-6.928-13.291-4.972-22.044-5.182 1.31-16.303 2.756-19.34-1.947-19.784 16.895-43.035 10.674-52.188 5.451-2.556-2.214-.447-3.27.927-3.521 6.296 4.741 24.96-2.013 24.357-4.238-6.835.712-10.681-7.491-12.976-7.491C13.53 86.424 3.275 70.31.598 65.262z" fill="url(#paint2_linear_58_3114)"/></mask><g mask="url(#a)"><path d="M48.555 83.632c-11.418-.978-19.419 2.554-19.635 6.547 1.484 1.901 1.649 7.046 4.947 6.442 3.298-.603 12.375-9.408 14.688-12.989z" fill="#FFD5A1"/></g><path d="M76.917 99.24c3.627 1.373 10.062 14.046 12.826 20.21l-.938 1.624c1.64-2.841-18.22-16.291-19.45-18.625-1.23-2.334 3.028-4.925 7.562-3.21z" fill="#E75718"/><path d="M41.154 51.857c2.498-6.03 8.861-9.578 11.742-10.405-1.214 4.28-4.894 14.21-9.894 19.69l-1.848-9.285z" fill="url(#paint3_linear_58_3114)"/><path d="M31.608 53.823c-.37-6.447 4.382-12.21 6.91-14.116.828 4.352 1.878 14.795-.557 21.755l-6.353-7.639z" fill="url(#paint4_linear_58_3114)"/><path d="M21.645 57.282c4.776-2.797 7.851.631 8.792 2.695-1.247 3.724-5.894 3.474-8.062 2.884-2.233-.694-5.506-2.782-.73-5.58z" fill="#FFD5A1"/><defs><linearGradient id="paint0_linear_58_3114" x1="167.53" y1="25.998" x2="158.629" y2="10.372" gradientUnits="userSpaceOnUse"><stop stop-color="#FF7E21"/><stop offset="1" stop-color="#E75718"/></linearGradient><linearGradient id="paint1_linear_58_3114" x1="101.405" y1="72.834" x2="106.624" y2="93.382" gradientUnits="userSpaceOnUse"><stop offset=".172" stop-color="#FF7E21"/><stop offset="1" stop-color="#E75718"/></linearGradient><linearGradient id="paint2_linear_58_3114" x1="101.143" y1="72.697" x2="106.373" y2="93.251" gradientUnits="userSpaceOnUse"><stop offset=".172" stop-color="#FF7E21"/><stop offset="1" stop-color="#E75718"/></linearGradient><linearGradient id="paint3_linear_58_3114" x1="52.862" y1="41.432" x2="40.325" y2="63.146" gradientUnits="userSpaceOnUse"><stop stop-color="#E85718"/><stop offset=".776" stop-color="#FF7E21"/></linearGradient><linearGradient id="paint4_linear_58_3114" x1="38.473" y1="39.703" x2="36.209" y2="64.347" gradientUnits="userSpaceOnUse"><stop stop-color="#E85718"/><stop offset=".776" stop-color="#FF7E21"/></linearGradient></defs></svg>