<svg width="125" height="82" fill="none" xmlns="http://www.w3.org/2000/svg"><path d="M27.488 56.67c5.932 4.004 12.497 4.522 15.038 4.28L55 49.03c-6.352-.11-19.46.026-21.067 1.448-2.01 1.779-9.702.988-14.76 1.384-5.06.395-5.475 1.844-5.96 2.832-.486.987-.416 4.544 3.257 5.334 2.938.633 2.379-1.23 1.732-2.239 1.441-1.58 6.791-1.405 9.286-1.12z" fill="#FF7E21"/><path d="M114.783 66.516c-3.189.402-5.851-2.177-6.783-3.516.862 2.703-.174 7.82.222 6.888.909-2.138 10.42.445 14.533 0 1.469-5.597-3.986-3.875-7.972-3.372z" fill="#E75718"/><path d="M122.271 60.261c-.985-9.39-8.21-13.018-11.904-13.833.41-2.795-1.391-5.496-2.395-6.428-2.846 2.962-2.599 8.594-2.12 11.039-.986-1.51-1.186-3.47-1.095-4.262-.985 6.204-4.47 8.174-6.157 8.384-15.38 4.471-27.229-26.2-49.6-4.122l14.572 18.445c2.19-9.223 36.464-1.607 37.422 0 .958 1.607 3.216 3.214 5.61 4.471 2.101 1.103 6.978 1.817 9.51-.42 2.124-1.875 7.343-1.443 8.62-.768 1.3-4.96-2.36-5.31-6.636-4.261-3.421.838-7.184-.7-7.184-.7-2.942-2.514-2.752-5.914-.958-5.379 4.871 1.453 10.24-.838 12.315-2.166z" fill="#FF7E21"/><path d="M109.947 46.088c.365-2.647-1.237-5.206-2.129-6.088-.466 1.765-1.228 6.035-.547 9l2.676-2.912z" fill="url(#paint0_linear_1_216)"/><path d="M115.623 53.25c-1.095-1.803-2.846-1.267-3.584-.773-.313 1.444 1.347 2.234 2.216 2.449.912.193 2.463.128 1.368-1.675z" fill="#FFD5A1"/><path d="M43.759 73.64c-1.38-.583-1.085-9.035-.766-13.189l1.532-3.343c-.51-.324-1.928-.11-3.511 3.343-1.98 4.316-2.427 16.533-1.66 18.113.766 1.58 2.298 4.498 5.171 3.04 2.873-1.46.958-7.234-.766-7.963z" fill="#FF7E21"/><path d="M43.759 73.64c-1.38-.583-1.085-9.035-.766-13.189l1.532-3.343c-.51-.324-1.928-.11-3.511 3.343-1.98 4.316-2.427 16.533-1.66 18.113.766 1.58 2.298 4.498 5.171 3.04 2.873-1.46.958-7.234-.766-7.963z" fill="url(#paint1_linear_1_216)"/><path d="M64.356 71.813c8.27-11.043.55-17.819-4.344-19.827-1.02-2.97-5.359-6.324-14.56 4.016-11.501 12.925 8.565 29.614 18.904 15.81z" fill="#FF7E21"/><path d="M64.356 71.813c8.27-11.043.55-17.819-4.344-19.827-1.02-2.97-5.359-6.324-14.56 4.016-11.501 12.925 8.565 29.614 18.904 15.81z" fill="url(#paint2_linear_1_216)"/><path d="M49.95 27.77c-.502 16.1 3.322 19.893 5.296 19.777 5.97 2.437 13.435 7.34-4.46 7.451-22.368.14-23.204-7.45-23.622-22.77-.418-15.32-10.104-15.181-11.358-14.764-1.255.418-3.972 1.254-1.533 4.457 1.95 2.563 4.11.232 4.947-1.253 4.39.348 2.509 16.016-9.686 11.56C-2.66 27.77-2.103 18.507 5.284 7.645 12.67-3.217 27.303.195 32.877 1.796c5.575 1.602 17.7 5.85 17.072 25.974z" fill="#FF7E21"/><path d="M49.95 27.77c-.502 16.1 3.322 19.893 5.296 19.777 5.97 2.437 13.435 7.34-4.46 7.451-22.368.14-23.204-7.45-23.622-22.77-.418-15.32-10.104-15.181-11.358-14.764-1.255.418-3.972 1.254-1.533 4.457 1.95 2.563 4.11.232 4.947-1.253 4.39.348 2.509 16.016-9.686 11.56C-2.66 27.77-2.103 18.507 5.284 7.645 12.67-3.217 27.303.195 32.877 1.796c5.575 1.602 17.7 5.85 17.072 25.974z" fill="url(#paint3_linear_1_216)"/><mask id="a" style="mask-type:alpha" maskUnits="userSpaceOnUse" x="41" y="49" width="28" height="29"><path d="M64.487 72.533c8.556-11.15.57-17.992-4.492-20.02-1.055-2.998-5.544-6.385-15.061 4.055-11.897 13.051 8.86 29.903 19.553 15.965z" fill="#FF7E21"/><path d="M64.487 72.533c8.556-11.15.57-17.992-4.492-20.02-1.055-2.998-5.544-6.385-15.061 4.055-11.897 13.051 8.86 29.903 19.553 15.965z" fill="url(#paint4_linear_1_216)"/></mask><g mask="url(#a)"><path d="M56.465 72.116c8.33-2.813 5.907-11.01 3.655-14.757-5.356-1.609-16.964-4.068-20.55-1.034-3.586 3.034-.299 9.034 1.793 11.654 1.563 2.551 6.772 6.95 15.102 4.137z" fill="#FF7E21"/></g><mask id="b" style="mask-type:alpha" maskUnits="userSpaceOnUse" x="0" y="0" width="62" height="55"><path d="M49.43 27.5c-.496 15.944 3.288 19.7 5.242 19.584 5.907 2.414 13.295 7.269-4.414 7.38-22.135.137-22.963-7.38-23.377-22.55-.413-15.171-9.998-15.033-11.24-14.62-1.241.414-3.93 1.242-1.517 4.414 1.931 2.538 4.069.23 4.896-1.241 4.345.344 2.483 15.86-9.585 11.447C-2.633 27.5-2.081 18.329 5.229 7.57c7.31-10.756 21.79-7.377 27.307-5.79 5.517 1.585 17.515 5.79 16.895 25.72z" fill="#FF7E21"/><path d="M49.43 27.5c-.496 15.944 3.288 19.7 5.242 19.584 5.907 2.414 13.295 7.269-4.414 7.38-22.135.137-22.963-7.38-23.377-22.55-.413-15.171-9.998-15.033-11.24-14.62-1.241.414-3.93 1.242-1.517 4.414 1.931 2.538 4.069.23 4.896-1.241 4.345.344 2.483 15.86-9.585 11.447C-2.633 27.5-2.081 18.329 5.229 7.57c7.31-10.756 21.79-7.377 27.307-5.79 5.517 1.585 17.515 5.79 16.895 25.72z" fill="url(#paint5_linear_1_216)"/></mask><g mask="url(#b)"><path d="M11.78 27.362c6.068 2.87 7.814-3.861 7.93-7.585 2.114 1.678 6.123 6.482 5.24 12.274-.883 5.793 2.299 13.861 4 17.171 11.63 2.965 31.927 7.117 20.067 0-14.826-8.895-11.723-13.93-12.827-27.307C35.087 8.537 25.157 6.537 15.02 8.744 4.883 10.95 4.194 23.777 11.78 27.362z" fill="#FF7E21"/></g><defs><linearGradient id="paint0_linear_1_216" x1="107.835" y1="40" x2="107.835" y2="50.257" gradientUnits="userSpaceOnUse"><stop stop-color="#E85718"/><stop offset=".776" stop-color="#FF7E21"/></linearGradient><linearGradient id="paint1_linear_1_216" x1="44.309" y1="67.602" x2="36.502" y2="77.036" gradientUnits="userSpaceOnUse"><stop stop-color="#FF751A"/><stop offset="1" stop-color="#E75718"/></linearGradient><linearGradient id="paint2_linear_1_216" x1="58.733" y1="56.512" x2="58.31" y2="77.068" gradientUnits="userSpaceOnUse"><stop stop-color="#FF7E21"/><stop offset="1" stop-color="#E75718"/></linearGradient><linearGradient id="paint3_linear_1_216" x1="24.098" y1="-2.591" x2="29.044" y2="41.094" gradientUnits="userSpaceOnUse"><stop offset=".27" stop-color="#EB5E19"/><stop offset="1" stop-color="#F96514" stop-opacity="0"/></linearGradient><linearGradient id="paint4_linear_1_216" x1="58.672" y1="57.084" x2="58.255" y2="77.84" gradientUnits="userSpaceOnUse"><stop stop-color="#FF7E21"/><stop offset="1" stop-color="#E75718"/></linearGradient><linearGradient id="paint5_linear_1_216" x1="23.847" y1="-2.565" x2="28.749" y2="40.693" gradientUnits="userSpaceOnUse"><stop offset=".27" stop-color="#EB5E19"/><stop offset="1" stop-color="#F96514" stop-opacity="0"/></linearGradient></defs></svg>