<svg width="136" height="162" fill="none" xmlns="http://www.w3.org/2000/svg"><path d="M29.139 119.813c-3.86-9.647 1.776-11.269 5.33-10.981-.62-1.851-.248-6.317-3.719-7.403-4.338-1.357-9.357.588-10.908 4.688-3.595 9.5-.992 12.708 0 17.89.991 5.182 15.247 12.462 28.139 14.559 10.313 1.678 13.14-1.933 13.015-3.701-8.677-1.234-26.527-1.728-31.857-15.052z" fill="#E75718"/><path d="M100.555 46.479c-.101 1.322-6.882 4.11-10.26 5.34-1.984 3.39-4.509 10.527 1.267 11.95 7.22 1.78 16.973-7.12 16.213-13.985-.76-6.865-1.013-8.645 0-9.662 1.014-1.017 3.167-7.247-2.786-7.12-5.954.127-4.307 11.824-4.434 13.477z" fill="#FF7E21"/><path d="M49.445 36.395C59.463 22.665 74.227 23.65 80.84 25.774c1.862-4.733 7.16-7.288 9.596-7.818C92.3 25.19 86.84 33.74 83.878 37.11c2.926-1.447 4.227-3.935 4.794-5.253-4.014 10.575.542 16.464 3.04 18.342 20.455 21.102 6.894 66.657 6.894 53.077l-40.237 33.195c-12.196-16.597-5.948-34.355-3.52-36.715 4.526-4.401 14.177-29.66 9.304-28.794-6.365 1.131-20.993-6.56-23.01-12.37-1.693-4.876-7.67.12-10.31 0C20.27 47.574 47.3 50.199 48.669 53.08c2.775 5.84 12.062 5.512 12.062 5.512 6.946-1.217 9.704-6.69 6.366-7.505-9.061-2.21-15.543-10.716-17.652-14.692z" fill="#FF7E21"/><path d="M115.667 86.981c-1.613-10.726-10.837-6.746-15.247-3.415-9.87 11.342-31.073 36.202-36.92 44.905-7.309 10.878-23.438 6.198-33.644 0-10.207-6.198-13.105-17.962-5.797-24.287 5.847-5.06 8.99.591 9.83 4.048 3.023-13.282-8.821-12.017-13.736-8.98-4.914 3.035-16.507 22.388-5.67 41.615 10.837 19.227 23.941 24.033 42.086 19.606s25.202-30.105 25.58-33.647c.302-2.833 2.814-5.987 4.032-7.21 0 5.06 2.52 7.716 4.41 6.072 1.89-1.645 6.93-5.945 11.467-8.096 4.536-2.15 11.593-2.15 8.821-7.083-2.218-3.947-11.677 1.982-16.13 5.439 1.009-3.668 10.207-7.969 12.727-9.613 2.52-1.645 10.207-5.945 8.191-19.354z" fill="#FF7E21"/><path d="M115.667 86.981c-1.613-10.726-10.837-6.746-15.247-3.415-9.87 11.342-31.073 36.202-36.92 44.905-7.309 10.878-23.438 6.198-33.644 0-10.207-6.198-13.105-17.962-5.797-24.287 5.847-5.06 8.99.591 9.83 4.048 3.023-13.282-8.821-12.017-13.736-8.98-4.914 3.035-16.507 22.388-5.67 41.615 10.837 19.227 23.941 24.033 42.086 19.606s25.202-30.105 25.58-33.647c.302-2.833 2.814-5.987 4.032-7.21 0 5.06 2.52 7.716 4.41 6.072 1.89-1.645 6.93-5.945 11.467-8.096 4.536-2.15 11.593-2.15 8.821-7.083-2.218-3.947-11.677 1.982-16.13 5.439 1.009-3.668 10.207-7.969 12.727-9.613 2.52-1.645 10.207-5.945 8.191-19.354z" fill="url(#paint0_linear_1_962)"/><path d="M80.842 25.774c1.862-4.733 7.16-7.288 9.595-7.818-.841 3.386-3.534 11.201-7.57 15.375l-2.025-7.557z" fill="url(#paint1_linear_1_962)"/><path d="M65.992 30.122c3.59-1.993 5.99.603 6.743 2.15-.886 2.742-4.43 2.476-6.091 2.001-1.714-.554-4.242-2.159-.653-4.152z" fill="#FFD5A1"/><defs><linearGradient id="paint0_linear_1_962" x1="62.996" y1="135.301" x2="48.933" y2="167.075" gradientUnits="userSpaceOnUse"><stop stop-color="#FF7E21"/><stop offset="1" stop-color="#E75718"/></linearGradient><linearGradient id="paint1_linear_1_962" x1="90.407" y1="17.939" x2="80.662" y2="34.817" gradientUnits="userSpaceOnUse"><stop stop-color="#E85718"/><stop offset=".776" stop-color="#FF7E21"/></linearGradient></defs></svg>