<svg width="111" height="201" fill="none" xmlns="http://www.w3.org/2000/svg"><path d="M90.022 14.504c.575 4.464-3.109 8.19-5.022 9.496 3.86-1.207 11.172.244 9.84-.311-3.054-1.273.636-14.588 0-20.346-7.995-2.056-5.535 5.58-4.818 11.16z" fill="#E75718"/><path d="M81.787 3.842C68.909 5.23 63.933 15.401 62.815 20.602c-3.832-.578-7.537 1.958-8.815 3.371 4.063 4.007 11.785 3.66 15.14 2.986-2.07 1.387-4.76 1.67-5.846 1.541 8.509 1.387 11.21 6.293 11.498 8.669C80.925 58.82 38.861 75.504 69.14 107l25.296-20.516c-12.648-3.082-2.204-51.338 0-52.686 2.203-1.349 4.407-4.527 6.132-7.899 1.513-2.957 2.491-9.824-.575-13.388-2.573-2.99-1.98-10.338-1.054-12.136-6.803-1.83-7.282 3.322-5.845 9.343 1.15 4.816-.958 10.113-.958 10.113-3.45 4.142-8.112 3.876-7.378 1.349 1.993-6.858-1.15-14.416-2.97-17.338z" fill="#FF7E21"/><path d="M62.118 20.089c-3.53-.609-6.942 2.06-8.118 3.547 2.353.777 8.047 2.048 12 .913l-3.882-4.46z" fill="url(#paint0_linear_4_367)"/><path d="M71.084 12.565c-3.006 1.642-2.111 4.269-1.288 5.377 2.405.47 3.722-2.02 4.08-3.324.322-1.369.215-3.696-2.792-2.053z" fill="#FFD5A1"/><path d="M101.779 111.701c-.81 1.873-14.235 3.927-19.994 3.493l-4.635-2.082c-.45.694-.152 2.62 4.635 4.771 5.984 2.69 21.231-.191 23.422-1.233 2.191-1.041 7.355-9.878 5.332-13.782-2.022-3.904-7.749 6.49-8.76 8.833z" fill="#FF7E21"/><path d="M101.779 111.701c-.81 1.873-14.235 3.927-19.994 3.493l-4.635-2.082c-.45.694-.152 2.62 4.635 4.771 5.984 2.69 21.231-.191 23.422-1.233 2.191-1.041 7.355-9.878 5.332-13.782-2.022-3.904-7.749 6.49-8.76 8.833z" fill="url(#paint1_linear_4_367)"/><path d="M98.59 84.326c-15.775-12.088-25.455-.804-28.324 6.349-4.242 1.49-9.034 7.832 5.737 21.28 18.464 16.809 42.306-12.518 22.587-27.629z" fill="#FF7E21"/><path d="M98.59 84.326c-15.775-12.088-25.455-.804-28.324 6.349-4.242 1.49-9.034 7.832 5.737 21.28 18.464 16.809 42.306-12.518 22.587-27.629z" fill="url(#paint2_linear_4_367)"/><path d="M41.674 120.754c19.67-10.554 21.575-17.768 20.069-20.055-1.209-8.849-.495-21.2 12.03.186 15.657 26.731-9.492 42.51-10.971 44.111-9.241 9.992-5.864 14.624-3.355 15.3 2.51.675 7.857-.194 9.072-1.641 2.027-2.413.046-3.694-2.316-3.667-2.622-5.507 17.267-10.169 20.363 7.545 3.095 17.714-19.963 27.071-38.116 25.739-18.152-1.332-24.19-21.247-26.128-29.043-1.938-7.796-5.236-25.282 19.352-38.475z" fill="#FF7E21"/><path d="M41.674 120.754c19.67-10.554 21.575-17.768 20.069-20.055-1.209-8.849-.495-21.2 12.03.186 15.657 26.731-9.492 42.51-10.971 44.111-9.241 9.992-5.864 14.624-3.355 15.3 2.51.675 7.857-.194 9.072-1.641 2.027-2.413.046-3.694-2.316-3.667-2.622-5.507 17.267-10.169 20.363 7.545 3.095 17.714-19.963 27.071-38.116 25.739-18.152-1.332-24.19-21.247-26.128-29.043-1.938-7.796-5.236-25.282 19.352-38.475z" fill="url(#paint3_linear_4_367)"/><mask id="a" style="mask-type:alpha" maskUnits="userSpaceOnUse" x="20" y="89" width="67" height="100"><path d="M41.674 120.754c19.67-10.554 21.575-17.768 20.068-20.055-1.208-8.849-.494-21.2 12.031.186 15.657 26.731-9.492 42.51-10.971 44.111-9.241 9.992-5.864 14.624-3.355 15.3 2.51.675 7.857-.194 9.072-1.641 2.027-2.413.046-3.694-2.316-3.667-2.622-5.507 17.267-10.169 20.362 7.545 3.096 17.714-19.962 27.071-38.114 25.739-18.153-1.332-24.191-21.247-26.13-29.043-1.937-7.796-5.235-25.282 19.353-38.475z" fill="#FF7E21"/><path d="M41.674 120.754c19.67-10.554 21.575-17.768 20.068-20.055-1.208-8.849-.494-21.2 12.031.186 15.657 26.731-9.492 42.51-10.971 44.111-9.241 9.992-5.864 14.624-3.355 15.3 2.51.675 7.857-.194 9.072-1.641 2.027-2.413.046-3.694-2.316-3.667-2.622-5.507 17.267-10.169 20.362 7.545 3.096 17.714-19.962 27.071-38.114 25.739-18.153-1.332-24.191-21.247-26.13-29.043-1.937-7.796-5.235-25.282 19.353-38.475z" fill="url(#paint4_linear_4_367)"/></mask><g mask="url(#a)"><path d="M75.95 154.988c-1.544-3.938-7.72-1.641-10.616 0l-.868-7.528 5.5-5.211 11.388-17.468-2.316-15.827c-4.053-3.281-11.156-7.083-7.141 3.957 5.018 13.8-12.932 25.671-16.213 29.338-3.281 3.667-13.994 17.274 0 26.732 13.993 9.457 22.196-9.072 20.266-13.993z" fill="url(#paint5_linear_4_367)"/></g><mask id="b" style="mask-type:alpha" maskUnits="userSpaceOnUse" x="66" y="79" width="40" height="38"><path d="M98.42 84.496c-15.604-11.973-25.18-.797-28.017 6.288-4.196 1.476-8.937 7.758 5.675 21.077 18.264 16.649 41.848-12.398 22.343-27.365z" fill="#FF7E21"/><path d="M98.42 84.496c-15.604-11.973-25.18-.797-28.017 6.288-4.196 1.476-8.937 7.758 5.675 21.077 18.264 16.649 41.848-12.398 22.343-27.365z" fill="url(#paint6_linear_4_367)"/></mask><g mask="url(#b)"><path d="M97.837 95.723C93.9 84.066 82.428 87.456 77.185 90.61c-2.252 7.495-5.694 23.74-1.448 28.758 4.247 5.019 12.643.418 16.31-2.509 3.57-2.187 9.728-9.477 5.79-21.135z" fill="#FF7E21"/></g><defs><linearGradient id="paint0_linear_4_367" x1="54" y1="23.608" x2="67.677" y2="23.608" gradientUnits="userSpaceOnUse"><stop stop-color="#E85718"/><stop offset=".776" stop-color="#FF7E21"/></linearGradient><linearGradient id="paint1_linear_4_367" x1="91.7" y1="113.406" x2="104.564" y2="124.269" gradientUnits="userSpaceOnUse"><stop stop-color="#FF751A"/><stop offset="1" stop-color="#E75718"/></linearGradient><linearGradient id="paint2_linear_4_367" x1="76.732" y1="92.544" x2="106.098" y2="93.135" gradientUnits="userSpaceOnUse"><stop stop-color="#FF7E21"/><stop offset="1" stop-color="#E75718"/></linearGradient><linearGradient id="paint3_linear_4_367" x1="23.137" y1="172.799" x2="72.135" y2="136.589" gradientUnits="userSpaceOnUse"><stop offset=".27" stop-color="#EB5E19"/><stop offset="1" stop-color="#F96514" stop-opacity="0"/></linearGradient><linearGradient id="paint4_linear_4_367" x1="23.137" y1="172.799" x2="72.135" y2="136.589" gradientUnits="userSpaceOnUse"><stop offset=".27" stop-color="#EB5E19"/><stop offset="1" stop-color="#F96514" stop-opacity="0"/></linearGradient><linearGradient id="paint5_linear_4_367" x1="58.522" y1="126.824" x2="47.141" y2="161.486" gradientUnits="userSpaceOnUse"><stop stop-color="#FF7E21"/><stop offset="1" stop-color="#E75718"/></linearGradient><linearGradient id="paint6_linear_4_367" x1="76.799" y1="92.635" x2="105.848" y2="93.219" gradientUnits="userSpaceOnUse"><stop stop-color="#FF7E21"/><stop offset="1" stop-color="#E75718"/></linearGradient></defs></svg>