<svg width="65" height="74" fill="none" xmlns="http://www.w3.org/2000/svg"><path d="M.693 23.445A4.748 4.748 0 003.74 25.75l.074 22.23a9.075 9.075 0 00-1.264.52C.172 49.913-.646 52.96.767 55.34a4.748 4.748 0 003.048 2.305c.446.148.893.148 1.264.148.893 0 1.71-.223 2.528-.669.372-.223.744-.52 1.041-.818L27.904 67.31a5.083 5.083 0 00.52 3.718c.967 1.635 2.602 2.527 4.313 2.527.892 0 1.71-.223 2.527-.669 2.008-1.19 2.9-3.569 2.305-5.65l18.884-11.004c.594.595 1.412 1.115 2.304 1.338.447.15.893.15 1.264.15.893 0 1.71-.224 2.528-.67a4.748 4.748 0 002.305-3.048c.297-1.264.149-2.677-.52-3.792a4.748 4.748 0 00-3.049-2.305l-.074-22.007 1.115-.446c2.38-1.413 3.197-4.46 1.784-6.84-1.412-2.38-4.46-3.197-6.84-1.784a4.79 4.79 0 00-.966.743L37.12 6.42c.372-1.264.223-2.677-.446-3.94-1.412-2.382-4.46-3.2-6.839-1.787-2.082 1.19-2.974 3.643-2.23 5.873L8.72 17.497a6.134 6.134 0 00-2.38-1.488c-1.263-.371-2.676-.148-3.791.52-2.453 1.415-3.27 4.537-1.858 6.916l.002.001zm6.69 31.004c-.222.372-.52.595-.891.818a2.956 2.956 0 01-2.082.297c-.743-.223-1.338-.67-1.71-1.264a2.956 2.956 0 01-.297-2.082c.223-.743.669-1.338 1.264-1.71.446-.223.892-.371 1.412-.371.223 0 .446 0 .744.074.743.223 1.338.67 1.71 1.264.52.966.446 2.082-.15 2.974zm21.488 11.003L9.838 54.523c.372-1.04.372-2.156 0-3.271l5.8-4.61a19.558 19.558 0 0015.835 9.666l.075 7.434c-.446.075-.892.298-1.339.52-.52.298-.966.744-1.338 1.19zm-13.68-28.624c0-9.517 7.732-17.249 17.249-17.249 9.516 0 17.323 7.732 17.323 17.249 0 9.516-7.732 17.249-17.248 17.249-9.517 0-17.324-7.733-17.324-17.25zm18.958 34.2c-1.338.744-3.048.297-3.791-1.04-.744-1.339-.298-3.05 1.04-3.793.447-.222.893-.371 1.413-.371.967 0 1.933.52 2.38 1.412.743 1.339.297 3.049-1.042 3.792zm21.115-16.654l-18.81 10.93a5.146 5.146 0 00-2.751-1.562l-.075-7.435c6.617-.372 12.417-4.163 15.614-9.517l6.022 4.238c-.074.15-.149.298-.149.52-.223.893-.148 1.934.149 2.826zm7.212-3.048c.744 1.338.298 3.048-1.04 3.791a2.956 2.956 0 01-2.082.298c-.744-.223-1.339-.67-1.71-1.264a2.955 2.955 0 01-.298-2.082c.223-.743.67-1.338 1.264-1.71.446-.223.892-.372 1.413-.372.966 0 1.933.447 2.453 1.339zm-5.278-31.004c.223-.744.669-1.338 1.264-1.71 1.338-.743 3.048-.297 3.791 1.04.743 1.34.298 3.05-1.04 3.793-1.339.743-3.05.297-3.792-1.041-.372-.595-.447-1.339-.223-2.082zm1.858 5.65l.075 21.858c-.52.074-1.041.297-1.562.595a4.79 4.79 0 00-.966.743l-6.245-4.386a19.105 19.105 0 001.71-7.955c0-3.272-.818-6.32-2.23-8.997l6.393-3.42c.67.818 1.71 1.339 2.825 1.562zM36.01 8.352L55.117 19.28c-.074.148-.074.297-.148.446-.224.892-.224 1.858.074 2.75l-6.394 3.42c-3.346-4.906-8.922-8.252-15.242-8.55V9.914c.447-.075.967-.298 1.413-.52.446-.298.892-.595 1.19-1.041zm-5.13-5.725c.446-.224.892-.372 1.413-.372.966 0 1.933.52 2.379 1.412.743 1.339.297 3.049-1.041 3.792-1.338.743-3.048.297-3.792-1.04-.743-1.34-.297-3.05 1.041-3.792zM28.65 8.5c.669.743 1.561 1.19 2.527 1.413v7.434c-5.873.372-11.077 3.42-14.423 7.956l-6.989-3.049v-.074c.223-.892.223-1.859-.074-2.751L28.649 8.5zM8.723 24.262l6.84 2.974c-1.635 2.825-2.527 6.096-2.527 9.665 0 2.751.594 5.353 1.635 7.732l-5.948 4.759c-.743-.744-1.635-1.19-2.602-1.413l-.074-22.157c.52-.074 1.04-.297 1.561-.595a4.535 4.535 0 001.115-.966zm-5.13-5.725a2.956 2.956 0 012.082-.297c.743.223 1.338.669 1.71 1.263.372.67.446 1.413.297 2.082-.149.67-.669 1.338-1.264 1.71-.669.372-1.412.52-2.156.297-.743-.223-1.338-.669-1.71-1.263-.743-1.339-.297-3.049 1.041-3.792z" fill="#fff"/><path d="M26.343 48.649h12.342c.744 0 1.413-.297 1.859-.818.446-.52.743-1.19.743-1.859V36.01c0-.744-.297-1.487-.817-2.008-.447-.446-1.116-.743-1.71-.818V31.55c.074-1.71-.52-3.346-1.71-4.536-1.115-1.264-2.677-1.933-4.387-2.007-1.71-.074-3.345.67-4.61 1.859-1.263 1.264-1.932 2.974-1.858 4.684v1.635c-.67.075-1.264.298-1.71.744l-.074.074c-.52.52-.744 1.19-.744 1.859v10.111c0 .744.297 1.413.744 1.86a2.7 2.7 0 001.933.817zm3.346-20.223c.818-.818 1.859-1.264 2.9-1.19a3.84 3.84 0 012.825 1.264c.743.818 1.19 1.86 1.115 2.974v1.636h-8.104v-1.636c0-1.115.446-2.23 1.264-3.048zm-3.792 7.435c0-.149.075-.223.15-.297l.073-.075c.075-.074.223-.148.298-.148h12.044c.149 0 .298.074.446.148.15.149.15.298.15.446v9.963c0 .149-.075.223-.15.297-.074.075-.148.15-.297.15H26.343c-.074 0-.223-.075-.297-.15-.074-.074-.149-.148-.149-.297V35.861z" fill="#fff"/><path d="M30.804 43.148h3.346v-2.082c.223-.297.297-.67.297-1.04a1.999 1.999 0 00-2.007-2.008c-1.115 0-1.933.892-2.007 2.007 0 .372.074.744.297 1.041v2.082h.074z" fill="#fff"/></svg>