<svg width="102" height="116" fill="none" xmlns="http://www.w3.org/2000/svg"><path d="M69.644 23.499c2.469 8.82 1.029 18.202 0 21.791L67 48.965c4.202.399 12.905-2.444 14.104-17.006 1.498-18.202 12.781-15.724 15.162-14.613 1.903.889.793 5.042 0 7.008 9.343-8.973 4.143-22.988-9.344-24.27-13.487-1.282-20.363 12.391-17.278 23.415z" fill="#FF7E21"/><path d="M69.644 23.499c2.469 8.82 1.029 18.202 0 21.791L67 48.965c4.202.399 12.905-2.444 14.104-17.006 1.498-18.202 12.781-15.724 15.162-14.613 1.903.889.793 5.042 0 7.008 9.343-8.973 4.143-22.988-9.344-24.27-13.487-1.282-20.363 12.391-17.278 23.415z" fill="url(#paint0_linear_4_407)"/><path d="M35.61 85.76c1.028-.542 3.363-5.018 4.403-7.188 2.965-1.128 8.913-2.757 8.986-.254.092 3.129-10.179 9.132-11.462 9.47-1.284.339-5.136.423-5.503-.93-.366-1.353 2.293-.422 3.577-1.099z" fill="#E75718"/><path d="M20 75.344c1.262-11.583 10.512-16.06 15.243-17.065-.526-3.447 1.78-6.78 3.066-7.928 3.644 3.654 3.329 10.6 2.715 13.617 1.262-1.862 1.18-3.785 1.063-4.762 1.262 7.653 3.89.127 3.711-.866 2.055-8.565 10.898-23.108 29.834-12.766 4.398 3.013 10.897 13.52 1.717 31.447-2.19-1.063-6.939-4.344-8.41-8.963-2.103 2.01-6.99 5.688-9.724 4.309C54.449 85.604 41.695 88.97 35.913 89c-1.822-.345-1.11-1.408-.526-1.896 4.293.517 11.308-7.677 10.411-8.555-3.052 2.177-7.13-.619-8.22 0-5.628 3.197-14.92-1.568-17.578-3.205z" fill="#FF7E21"/><path d="M20 75.344c1.262-11.583 10.512-16.06 15.243-17.065-.526-3.447 1.78-6.78 3.066-7.928 3.644 3.654 3.329 10.6 2.715 13.617 1.262-1.862 1.18-3.785 1.063-4.762 1.262 7.653 3.89.127 3.711-.866 2.055-8.565 10.898-23.108 29.834-12.766 4.398 3.013 10.897 13.52 1.717 31.447-2.19-1.063-6.939-4.344-8.41-8.963-2.103 2.01-6.99 5.688-9.724 4.309C54.449 85.604 41.695 88.97 35.913 89c-1.822-.345-1.11-1.408-.526-1.896 4.293.517 11.308-7.677 10.411-8.555-3.052 2.177-7.13-.619-8.22 0-5.628 3.197-14.92-1.568-17.578-3.205z" fill="url(#paint1_linear_4_407)"/><mask id="a" style="mask-type:alpha" maskUnits="userSpaceOnUse" x="20" y="42" width="62" height="48"><path d="M20.356 75.507C21.597 63.92 30.7 59.445 35.354 58.439c-.517-3.448 1.753-6.781 3.017-7.93 3.586 3.654 3.276 10.602 2.673 13.62 1.241-1.863 1.16-3.786 1.046-4.763 1.24 7.655 3.827.127 3.651-.867 2.022-8.566 10.724-23.112 29.357-12.768 4.327 3.013 10.723 13.523 1.689 31.453-2.155-1.063-6.827-4.344-8.275-8.965-2.07 2.012-6.88 5.69-9.569 4.31-4.689 13.24-17.24 16.608-22.929 16.637-1.793-.345-1.092-1.408-.517-1.897 4.224.518 11.127-7.678 10.244-8.556-3.003 2.178-7.016-.62-8.09 0-5.537 3.197-14.68-1.569-17.295-3.206z" fill="#FF7E21"/><path d="M20.356 75.507C21.597 63.92 30.7 59.445 35.354 58.439c-.517-3.448 1.753-6.781 3.017-7.93 3.586 3.654 3.276 10.602 2.673 13.62 1.241-1.863 1.16-3.786 1.046-4.763 1.24 7.655 3.827.127 3.651-.867 2.022-8.566 10.724-23.112 29.357-12.768 4.327 3.013 10.723 13.523 1.689 31.453-2.155-1.063-6.827-4.344-8.275-8.965-2.07 2.012-6.88 5.69-9.569 4.31-4.689 13.24-17.24 16.608-22.929 16.637-1.793-.345-1.092-1.408-.517-1.897 4.224.518 11.127-7.678 10.244-8.556-3.003 2.178-7.016-.62-8.09 0-5.537 3.197-14.68-1.569-17.295-3.206z" fill="url(#paint2_linear_4_407)"/></mask><g mask="url(#a)"><path d="M47.737 71.15c-5.602 2.625-8.39 6.436-7.413 8.361 1.207.489 2.673 2.85 4.052 1.677 1.38-1.172 3.247-7.74 3.361-10.038z" fill="#FFD5A1"/></g><path d="M65.215 70.022c2.127-.385 8.743 4.39 11.785 6.825V78c0-2.019-13.291-3.076-14.532-3.941-1.24-.865.089-3.556 2.747-4.037z" fill="#E75718"/><path d="M35.089 58.118c-.609-3.53 2.06-6.942 3.547-8.118.777 2.353 2.048 8.047.912 12l-4.46-3.882z" fill="url(#paint3_linear_4_407)"/><path d="M31.768 61.787c-1.914-2.915-1.248-6.892-.58-8.465 1.562 1.81 4.872 6.41 5.612 10.322l-5.032-1.857z" fill="url(#paint4_linear_4_407)"/><path d="M28.377 66.25c1.095-1.803 2.846-1.266 3.584-.773.313 1.444-1.347 2.234-2.216 2.449-.912.193-2.463.128-1.368-1.675z" fill="#FFD5A1"/><defs><linearGradient id="paint0_linear_4_407" x1="87.98" y1="11.877" x2="79.533" y2="6.705" gradientUnits="userSpaceOnUse"><stop stop-color="#FF7E21"/><stop offset="1" stop-color="#E75718"/></linearGradient><linearGradient id="paint1_linear_4_407" x1="69.815" y1="51.683" x2="77.803" y2="60.01" gradientUnits="userSpaceOnUse"><stop offset=".172" stop-color="#FF7E21"/><stop offset="1" stop-color="#E75718"/></linearGradient><linearGradient id="paint2_linear_4_407" x1="69.374" y1="51.841" x2="77.368" y2="60.04" gradientUnits="userSpaceOnUse"><stop offset=".172" stop-color="#FF7E21"/><stop offset="1" stop-color="#E75718"/></linearGradient><linearGradient id="paint3_linear_4_407" x1="38.608" y1="50" x2="38.608" y2="63.676" gradientUnits="userSpaceOnUse"><stop stop-color="#E85718"/><stop offset=".776" stop-color="#FF7E21"/></linearGradient><linearGradient id="paint4_linear_4_407" x1="31.166" y1="53.332" x2="36.759" y2="65.466" gradientUnits="userSpaceOnUse"><stop stop-color="#E85718"/><stop offset=".776" stop-color="#FF7E21"/></linearGradient></defs></svg>