<svg width="84" height="90" fill="none" xmlns="http://www.w3.org/2000/svg"><path d="M18.408 72.524c1.702-.528 3.11.88 3.6 1.65.41-1.65-1.718-4.62-3.6-5.774-1.881-1.155-4.336.494-6.135 1.154-1.8.66-1.31 4.62-.819 7.754.491 3.134 3.355 5.361 4.99 7.011 1.637 1.65 8.591-.082 5.973-1.155-2.618-1.072-4.99-4.454-5.563-5.856-.573-1.402-.573-4.124 1.554-4.784zM53.248 55c-3.037-1.843.57-5.682 2.752-7.372-1.297-1.228-4.366-2.949-6.264 0-1.898 2.949-1.866 5.406-1.613 6.266L53.248 55z" fill="#EB5E19"/><path d="M23.571 32.589c-3.767 4.843-9.405 21.39 6.815 24.13 20.617 3.484 23.636 28.209 0 32.797C10.31 93.413 2.523 72.693 10.373 66.49c7.85-6.202 15.01 3.314 12.077 7.477-.518-1.982-2.433-5.778-5.952-5.098-4.4.85-6.211 7.307.43 12.065 6.643 4.758 13.458-2.549 13.113-6.797-.345-4.248-4.486-7.222-6.038-8.326C22.45 64.706 4.335 58.758.97 46.863-2.379 35.023 2.756 24.96 19.258 28.85c3.704.874 6.448 1.453 8.429 1.825 3.855-.248 7.71 1.449 0 0-1.706.11-3.412.601-4.116 1.914z" fill="#FF7E21"/><path d="M23.571 32.589c-3.767 4.843-9.405 21.39 6.815 24.13 20.617 3.484 23.636 28.209 0 32.797C10.31 93.413 2.523 72.693 10.373 66.49c7.85-6.202 15.01 3.314 12.077 7.477-.518-1.982-2.433-5.778-5.952-5.098-4.4.85-6.211 7.307.43 12.065 6.643 4.758 13.458-2.549 13.113-6.797-.345-4.248-4.486-7.222-6.038-8.326C22.45 64.706 4.335 58.758.97 46.863-2.379 35.023 2.756 24.96 19.258 28.85c3.704.874 6.448 1.453 8.429 1.825 3.855-.248 7.71 1.449 0 0-1.706.11-3.412.601-4.116 1.914z" fill="url(#paint0_linear_4_434)"/><path d="M77.982 28.564c-6.792-9.309-16.802-8.642-21.286-7.202-1.262-3.208-4.854-4.94-6.506-5.3-1.264 4.904 2.438 10.7 4.446 12.986-1.983-.98-2.866-2.668-3.25-3.561 2.722 7.17-3.216 2.001-3.556 1.063-5.968-6.337-20.614-14.492-31.457 3.58-.171 6.736 2.318 21.33 13.64 25.831 3.296.114 10.008.052 10.485-1.108.597-1.449-.085-3.41-2.813-3.495-1.591 1.023-4.979 2.881-5.797 2.131 1.819-1.591 5.524-5.728 5.797-9.548.739.398 2.523 1.108 3.75.768-.113 3.012.188 9.258 2.303 10.144 2.642 1.108 5.82 1.108 6.734 1.108.914 0 2.899 1.28 3.325.342.426-.938.426-1.79-1.45-2.814-.866-.473-7.501 0-3.665-4.347 8.014.852 10.159-1.882 10.48-3.07-.506-4.347 5.627-7.547 6.852-7.547 6.323 0 10.538-7.266 11.968-9.961z" fill="#FF7E21"/><path d="M77.982 28.564c-6.792-9.309-16.802-8.642-21.286-7.202-1.262-3.208-4.854-4.94-6.506-5.3-1.264 4.904 2.438 10.7 4.446 12.986-1.983-.98-2.866-2.668-3.25-3.561 2.722 7.17-3.216 2.001-3.556 1.063-5.968-6.337-20.614-14.492-31.457 3.58-.171 6.736 2.318 21.33 13.64 25.831 3.296.114 10.008.052 10.485-1.108.597-1.449-.085-3.41-2.813-3.495-1.591 1.023-4.979 2.881-5.797 2.131 1.819-1.591 5.524-5.728 5.797-9.548.739.398 2.523 1.108 3.75.768-.113 3.012.188 9.258 2.303 10.144 2.642 1.108 5.82 1.108 6.734 1.108.914 0 2.899 1.28 3.325.342.426-.938.426-1.79-1.45-2.814-.866-.473-7.501 0-3.665-4.347 8.014.852 10.159-1.882 10.48-3.07-.506-4.347 5.627-7.547 6.852-7.547 6.323 0 10.538-7.266 11.968-9.961z" fill="url(#paint1_linear_4_434)"/><mask id="a" style="mask-type:alpha" maskUnits="userSpaceOnUse" x="16" y="16" width="62" height="41"><path d="M77.982 28.564c-6.792-9.309-16.802-8.642-21.286-7.202-1.262-3.208-4.854-4.94-6.506-5.3-1.264 4.904 2.438 10.7 4.446 12.986-1.983-.98-2.866-2.668-3.25-3.561 2.722 7.17-3.216 2.001-3.556 1.063-5.968-6.337-20.614-14.492-31.457 3.58-.171 6.736 2.318 21.33 13.64 25.831 3.296.114 10.008.052 10.485-1.108.597-1.449-.085-3.41-2.813-3.495-1.591 1.023-4.979 2.881-5.797 2.131 1.819-1.591 5.524-5.728 5.797-9.548.739.398 2.523 1.108 3.75.767-.113 3.013.188 9.259 2.303 10.145 2.642 1.108 5.82 1.108 6.734 1.108.914 0 2.899 1.28 3.325.342.426-.938.426-1.79-1.45-2.814-.866-.473-7.501 0-3.665-4.347 8.014.852 10.159-1.882 10.48-3.07-.506-4.347 5.627-7.547 6.852-7.547 6.323 0 10.538-7.266 11.968-9.961z" fill="#FF7E21"/></mask><g mask="url(#a)"><path d="M48.426 42.748c1.774-2.933 8.184-.313 11.168 1.364l1.705 2.642-5.03 3.325c-2.614.228-7.74.307-7.331-1.193.41-1.5-.17-4.717-.512-6.138z" fill="#FFD5A1"/></g><path d="M56.696 21.362c-1.262-3.208-4.854-4.94-6.506-5.3.571 2.296 2.396 7.594 5.133 10.424l1.373-5.124z" fill="url(#paint2_linear_4_434)"/><path d="M61.424 22.456c.197-3.442-2.34-6.52-3.69-7.537-.442 2.324-1.003 7.9.298 11.616l3.392-4.079z" fill="url(#paint3_linear_4_434)"/><path d="M66.765 24.31c-2.434-1.351-4.062.41-4.572 1.459.6 1.858 3.003 1.678 4.13 1.356 1.161-.376 2.876-1.464.442-2.815z" fill="#FFD5A1"/><defs><linearGradient id="paint0_linear_4_434" x1="13.047" y1="67.51" x2="31.238" y2="86.018" gradientUnits="userSpaceOnUse"><stop stop-color="#FF7E21"/><stop offset="1" stop-color="#E75718"/></linearGradient><linearGradient id="paint1_linear_4_434" x1="34.531" y1="40.702" x2="37.511" y2="59.882" gradientUnits="userSpaceOnUse"><stop stop-color="#FF7E21"/><stop offset="1" stop-color="#E75718"/></linearGradient><linearGradient id="paint2_linear_4_434" x1="50.211" y1="16.05" x2="56.818" y2="27.494" gradientUnits="userSpaceOnUse"><stop stop-color="#E85718"/><stop offset=".776" stop-color="#FF7E21"/></linearGradient><linearGradient id="paint3_linear_4_434" x1="57.758" y1="14.917" x2="58.967" y2="28.075" gradientUnits="userSpaceOnUse"><stop stop-color="#E85718"/><stop offset=".776" stop-color="#FF7E21"/></linearGradient></defs></svg>