<svg width="119" height="120" fill="none" xmlns="http://www.w3.org/2000/svg"><path d="M97.653 67.764c-.894-8.696-7.448-12.057-10.8-12.811.373-2.589-1.261-5.09-2.172-5.953-2.581 2.743-2.358 7.958-1.924 10.223-.893-1.398-1.075-3.214-.993-3.947-.893 5.746-4.055 7.57-5.586 7.764C62.226 67.181 57.58 77.102 57 81.545l11.793-5.24c9.62-.907 11.544 3.3 12.413 4.787.869 1.488.993 2.459 3.103 2.847 2.11.388 6.02-1.1 7.758-3.882 1.39-2.226 4.18-1.467 5.338-.841 2.172-4.4-2.016-5.37-5.896-4.4-3.104.776-4.159-.065-4.159-.065-2.669-2.329-2.497-5.478-.869-4.982 4.42 1.346 9.29-.776 11.172-2.005z" fill="#FF7E21"/><path d="M86.947 54.412c.365-2.353-1.237-4.628-2.129-5.412-.466 1.569-1.228 5.365-.547 8l2.676-2.588z" fill="url(#paint0_linear_4_406)"/><path d="M92.623 61.25c-1.095-1.803-2.846-1.267-3.584-.773-.313 1.444 1.347 2.234 2.216 2.449.912.193 2.463.128 1.368-1.675z" fill="#FFD5A1"/><path d="M78.976 93.363c7.857-13.77-4.06-17.296-11.002-17.338l-10.877 4.179C56.91 64.366 67.974 65.609 71.952 50.08c3.183-12.424-4.268-20.894-8.39-23.576-1.555-1.247-6.577-3.692-14.235-3.492-7.657.2-12.141 3.16-13.426 4.615 19.493-.699 17.073 8.15 13.426 12.66-34.186 32.495-6.9 57.505 11.375 56.694H86c-.249-1.871-3.108-1.934-6.03-1.746-2.336.15-1.636-1.186-.994-1.872z" fill="url(#paint1_radial_4_406)"/><path d="M78.976 93.363c7.857-13.77-4.06-17.296-11.002-17.338l-10.877 4.179C56.91 64.366 67.974 65.609 71.952 50.08c3.183-12.424-4.268-20.894-8.39-23.576-1.555-1.247-6.577-3.692-14.235-3.492-7.657.2-12.141 3.16-13.426 4.615 19.493-.699 17.073 8.15 13.426 12.66-34.186 32.495-6.9 57.505 11.375 56.694H86c-.249-1.871-3.108-1.934-6.03-1.746-2.336.15-1.636-1.186-.994-1.872z" fill="url(#paint2_linear_4_406)"/><mask id="a" style="mask-type:alpha" maskUnits="userSpaceOnUse" x="33" y="23" width="54" height="74"><path d="M79.028 93.204c7.866-13.74-4.065-17.257-11.014-17.299l-10.89 4.17c-.186-15.803 10.89-14.562 14.873-30.057 3.186-12.395-4.273-20.846-8.401-23.522-1.556-1.244-6.584-3.684-14.25-3.484-7.667.199-12.155 3.152-13.441 4.604 19.514-.697 17.091 8.132 13.44 12.633-34.224 32.42-6.907 57.374 11.389 56.565H86.06c-.249-1.867-3.111-1.93-6.036-1.743-2.34.15-1.639-1.182-.996-1.867z" fill="url(#paint3_linear_4_406)"/></mask><g mask="url(#a)"><path d="M67.765 93.578c-2.19 1.493-2.82 2.862-2.862 3.36h-2.676L57.249 83.56c-.83-4.231.087-11.823 11.636-7.592 14.437 5.29 1.618 15.744-1.12 17.61z" fill="#FF7E22"/></g><mask id="b" style="mask-type:alpha" maskUnits="userSpaceOnUse" x="33" y="23" width="54" height="74"><path d="M79.028 93.204c7.866-13.74-4.065-17.257-11.014-17.299l-10.89 4.17c-.186-15.803 10.89-14.562 14.873-30.057 3.186-12.395-4.273-20.846-8.401-23.522-1.556-1.244-6.584-3.684-14.25-3.484-7.667.199-12.155 3.152-13.441 4.604 19.514-.697 17.091 8.132 13.44 12.633-34.224 32.42-6.907 57.374 11.389 56.565H86.06c-.249-1.867-3.111-1.93-6.036-1.743-2.34.15-1.639-1.182-.996-1.867z" fill="url(#paint4_linear_4_406)"/></mask><g mask="url(#b)"><path d="M60.796 33.03c-4.83-9.907-18.772-7.695-25.14-5.351 2.862-4.667 18.108-8.961 29.869-1.183 11.761 7.779 9.334 20.1 7.654 26.385-1.68 6.285-6.41 9.645-10.89 15.308-3.584 4.53-5.061 10.102-5.351 12.321 1.593 1.493 5.31 11.823 6.97 16.801h-3.859c-26.634-12.756-9.583-32.607-5.912-37.087 3.672-4.48 12.695-14.81 6.659-27.194z" fill="url(#paint5_linear_4_406)"/></g><defs><linearGradient id="paint0_linear_4_406" x1="84.835" y1="49" x2="84.835" y2="58.118" gradientUnits="userSpaceOnUse"><stop stop-color="#E85718"/><stop offset=".776" stop-color="#FF7E21"/></linearGradient><linearGradient id="paint2_linear_4_406" x1="56.724" y1="23.012" x2="42.838" y2="70.698" gradientUnits="userSpaceOnUse"><stop offset=".486" stop-color="#FF761B"/><stop offset="1" stop-color="#F96514" stop-opacity="0"/></linearGradient><linearGradient id="paint3_linear_4_406" x1="73.241" y1="54.312" x2="59.53" y2="96.833" gradientUnits="userSpaceOnUse"><stop stop-color="#FF751A"/><stop offset="1" stop-color="#E75718"/></linearGradient><linearGradient id="paint4_linear_4_406" x1="73.241" y1="54.312" x2="59.53" y2="96.833" gradientUnits="userSpaceOnUse"><stop stop-color="#FF751A"/><stop offset="1" stop-color="#E75718"/></linearGradient><linearGradient id="paint5_linear_4_406" x1="55.128" y1="22.208" x2="55.128" y2="97.311" gradientUnits="userSpaceOnUse"><stop stop-color="#FF7E22"/><stop offset=".316" stop-color="#FF7E22"/></linearGradient><radialGradient id="paint1_radial_4_406" cx="0" cy="0" r="1" gradientUnits="userSpaceOnUse" gradientTransform="matrix(-7.27248 18.58582 -29.18546 -11.42003 77.236 78.395)"><stop stop-color="#FF751A"/><stop offset=".717" stop-color="#E75718"/></radialGradient></defs></svg>