<svg width="93" height="111" fill="none" xmlns="http://www.w3.org/2000/svg"><path d="M19.771 81.872c-2.692-6.6 1.24-7.71 3.719-7.513-.432-1.267-.173-4.323-2.595-5.066-3.026-.928-6.528.403-7.61 3.208-2.508 6.5-.692 8.695 0 12.24.692 3.546 10.637 8.527 19.632 9.962 7.195 1.148 9.167-1.322 9.08-2.532-6.053-.845-18.507-1.182-22.226-10.3z" fill="#E75718"/><path d="M69.37 32.13c-.067.896-4.588 2.785-6.84 3.618-1.323 2.297-3.006 7.131.845 8.096 4.813 1.206 11.315-4.823 10.809-9.474-.507-4.65-.676-5.857 0-6.546.675-.689 2.11-4.909-1.858-4.823-3.97.086-2.871 8.01-2.956 9.13z" fill="#FF7E21"/><path d="M33.905 24.956c6.869-9.414 16.992-8.74 21.527-7.283 1.277-3.245 4.91-4.997 6.58-5.36 1.278 4.959-2.465 10.822-4.497 13.133 2.007-.992 2.898-2.698 3.288-3.602-2.753 7.252.371 11.29 2.083 12.577 14.027 14.47 4.728 45.707 4.728 36.395l-27.59 22.762c-8.363-11.381-4.079-23.558-2.414-25.176 3.104-3.018 9.72-20.338 6.38-19.744-4.365.776-14.395-4.497-15.778-8.482-1.16-3.343-5.26.083-7.07 0-7.242-7.554 11.292-5.755 12.23-3.78 1.903 4.005 8.272 3.78 8.272 3.78 4.762-.834 6.654-4.587 4.364-5.145-6.213-1.517-10.658-7.348-12.103-10.075z" fill="#FF7E21"/><path d="M79.77 59.768c-1.11-7.326-7.462-4.608-10.5-2.333-6.797 7.746-21.4 24.724-25.426 30.667-5.033 7.429-16.14 4.233-23.17 0-7.029-4.233-9.025-12.267-3.991-16.586 4.026-3.455 6.19.403 6.768 2.764 2.083-9.07-6.074-8.206-9.459-6.133-3.384 2.073-11.368 15.29-3.905 28.42 7.463 13.131 16.488 16.414 28.984 13.39 12.497-3.023 17.356-20.56 17.616-22.978.209-1.935 1.939-4.089 2.777-4.924 0 3.455 1.736 5.27 3.038 4.146 1.301-1.122 4.772-4.06 7.896-5.528 3.124-1.469 7.984-1.469 6.075-4.838-1.527-2.695-8.041 1.354-11.108 3.715.695-2.505 7.03-5.442 8.765-6.565 1.736-1.123 7.029-4.06 5.64-13.217z" fill="#FF7E21"/><path d="M79.77 59.768c-1.11-7.326-7.462-4.608-10.5-2.333-6.797 7.746-21.4 24.724-25.426 30.667-5.033 7.429-16.14 4.233-23.17 0-7.029-4.233-9.025-12.267-3.991-16.586 4.026-3.455 6.19.403 6.768 2.764 2.083-9.07-6.074-8.206-9.459-6.133-3.384 2.073-11.368 15.29-3.905 28.42 7.463 13.131 16.488 16.414 28.984 13.39 12.497-3.023 17.356-20.56 17.616-22.978.209-1.935 1.939-4.089 2.777-4.924 0 3.455 1.736 5.27 3.038 4.146 1.301-1.122 4.772-4.06 7.896-5.528 3.124-1.469 7.984-1.469 6.075-4.838-1.527-2.695-8.041 1.354-11.108 3.715.695-2.505 7.03-5.442 8.765-6.565 1.736-1.123 7.029-4.06 5.64-13.217z" fill="url(#paint0_linear_4_458)"/><path d="M55.432 17.673c1.277-3.245 4.91-4.997 6.58-5.36-.578 2.321-2.424 7.68-5.191 10.542l-1.389-5.182z" fill="url(#paint1_linear_4_458)"/><path d="M45.249 20.654c2.461-1.366 4.108.414 4.624 1.475-.607 1.88-3.038 1.698-4.177 1.372-1.175-.38-2.909-1.48-.447-2.847z" fill="#FFD5A1"/><defs><linearGradient id="paint0_linear_4_458" x1="43.497" y1="92.767" x2="33.948" y2="114.525" gradientUnits="userSpaceOnUse"><stop stop-color="#FF7E21"/><stop offset="1" stop-color="#E75718"/></linearGradient><linearGradient id="paint1_linear_4_458" x1="61.991" y1="12.3" x2="55.309" y2="23.874" gradientUnits="userSpaceOnUse"><stop stop-color="#E85718"/><stop offset=".776" stop-color="#FF7E21"/></linearGradient></defs></svg>