<svg width="134" height="131" fill="none" xmlns="http://www.w3.org/2000/svg"><path d="M101.049 15.73c6.644 9.063-1.689 11.814-6.685 12.057 7.799 6.86 14.382 5.924 17.218 3.014 2.836-2.91 1.013-10.082-1.924-16.319-2.937-6.236-11.85-11.33-19.042-8.835-7.191 2.495-6.786 14.76-6.482 12.265.303-2.494 8.609-13.512 16.915-2.182z" fill="#EB5E19"/><path d="M75.464 61.239c-2.32 1.937-1.566 5.514-.9 7.06.5 7.464 4.2 22.25 15.001 21.685 13.501-.706 23.601-6.757 22.401-27.434-1.2-20.676-33.301-34.292-26.501-47 6.8-12.71 20.201-3.531 22.101 8.673 1.52 9.763-8.767 6.018-14.1 2.925 19.9 24.106 28.701-3.53 14.7-19.063-14-15.532-30.001-4.538-32.702-1.008l-.014.02c-2.713 3.546-10.269 13.424-.886 29.633 9.4 16.238 3.8 22.088.9 24.509z" fill="#E75718"/><path d="M75.464 61.239c-2.32 1.937-1.566 5.514-.9 7.06.5 7.464 4.2 22.25 15.001 21.685 13.501-.706 23.601-6.757 22.401-27.434-1.2-20.676-33.301-34.292-26.501-47 6.8-12.71 20.201-3.531 22.101 8.673 1.52 9.763-8.767 6.018-14.1 2.925 19.9 24.106 28.701-3.53 14.7-19.063-14-15.532-30.001-4.538-32.702-1.008l-.014.02c-2.713 3.546-10.269 13.424-.886 29.633 9.4 16.238 3.8 22.088.9 24.509z" fill="url(#paint0_linear_4_469)"/><path d="M26.38 31.786c8.074-11.067 19.975-10.274 25.306-8.562 1.5-3.815 5.771-5.874 7.734-6.301 1.503 5.83-2.898 12.722-5.286 15.439 2.359-1.166 3.407-3.172 3.865-4.234-3.236 8.524.436 13.27 2.45 14.784 6.03 4.398 9.04 13.776 9.791 17.916.325.568 3.04 3.48 4.358 4.865 2.109 2.838 12.095 6.993 16.825 8.716 6.324 4.703 3.04 12.568.608 15.912-1.297 2.676-.54 4.9 0 5.676 7.135-1.621 11.554-1.621 12.872-1.419 5.675.608 6.689 3.75 6.081 4.764-.487.811-3.649 1.149-5.169 1.216-7.5-1.926-16.723-.81-18.75-.608-1.622.162-3.581-1.014-4.358-1.622-3.082-1.621-6.284-1.419-7.5-1.115-13.784 2.433-19.663-.1-20.676-.202-.811-.081-.879.439-.811.71-6.325-1.541-15.54-.913-19.358-.406-1.217-3.142 3.547-4.865 4.864-4.865 1.055 0 6.791 1.554 9.528 2.331-21.487-13.622-12.467-23.176-5.27-26.25-4.298-6.081-4.156-10.237-3.548-11.554 1.723-5.068 2.128-13.348.672-13.348-7.518 0-12.529-8.638-14.229-11.843z" fill="#FF7E21"/><path d="M26.38 31.786c8.074-11.067 19.975-10.274 25.306-8.562 1.5-3.815 5.771-5.874 7.734-6.301 1.503 5.83-2.898 12.722-5.286 15.439 2.359-1.166 3.407-3.172 3.865-4.234-3.236 8.524.436 13.27 2.45 14.784 6.03 4.398 9.04 13.776 9.791 17.916.325.568 3.04 3.48 4.358 4.865 2.109 2.838 12.095 6.993 16.825 8.716 6.324 4.703 3.04 12.568.608 15.912-1.297 2.676-.54 4.9 0 5.676 7.135-1.621 11.554-1.621 12.872-1.419 5.675.608 6.689 3.75 6.081 4.764-.487.811-3.649 1.149-5.169 1.216-7.5-1.926-16.723-.81-18.75-.608-1.622.162-3.581-1.014-4.358-1.622-3.082-1.621-6.284-1.419-7.5-1.115-13.784 2.433-19.663-.1-20.676-.202-.811-.081-.879.439-.811.71-6.325-1.541-15.54-.913-19.358-.406-1.217-3.142 3.547-4.865 4.864-4.865 1.055 0 6.791 1.554 9.528 2.331-21.487-13.622-12.467-23.176-5.27-26.25-4.298-6.081-4.156-10.237-3.548-11.554 1.723-5.068 2.128-13.348.672-13.348-7.518 0-12.529-8.638-14.229-11.843z" fill="url(#paint1_linear_4_469)"/><path d="M46.534 48.965c-5.041 3.916-1.412 11.423 1.033 14.686 2.892 1.759 1.756 7.06.826 9.492-6.404 14.287 9.193 18.284 11.569 18.583 2.376.3 11.26 1.998 14.461-8.892 3.202-10.89-7.85-17.284-10.536-19.183-2.148-1.518-2.203-4.296-1.962-5.495.826-9.391-9.09-14.087-15.391-9.191z" fill="#FFD5A1"/><path d="M51.686 23.224c1.5-3.815 5.771-5.874 7.734-6.301-.678 2.729-2.849 9.028-6.102 12.393l-1.632-6.092z" fill="url(#paint2_linear_4_469)"/><path d="M46.065 24.525c-.235-4.093 2.782-7.751 4.386-8.96.526 2.762 1.193 9.391-.353 13.809l-4.033-4.85z" fill="url(#paint3_linear_4_469)"/><path d="M39.715 26.729c2.893-1.607 4.83.486 5.435 1.733-.713 2.21-3.57 1.996-4.91 1.613-1.38-.446-3.419-1.74-.525-3.346z" fill="#FFD5A1"/><path d="M49.317 65.495c-6.29-6.717-5.863-13.595-4.863-16.194-.345-.666-1.78-.66-4.76 4.698-2.98 5.358 4.346 15.428 8.381 19.793-.207 1.4 1.242 4.398 4.346 4.198 3.104-.2 4.76-4.098-3.104-12.495z" fill="#FF7E21"/><path d="M49.317 65.495c-6.29-6.717-5.863-13.595-4.863-16.194-.345-.666-1.78-.66-4.76 4.698-2.98 5.358 4.346 15.428 8.381 19.793-.207 1.4 1.242 4.398 4.346 4.198 3.104-.2 4.76-4.098-3.104-12.495z" fill="url(#paint4_linear_4_469)"/><path d="M68.996 56.638c.166-6.633-4.547-11.324-7.393-12.638L59 47.842c3.332 2.123 2.603 8.189 2.603 10.21 0 2.023-4.477 16.076-.937 19.008 3.54 2.931 6.664-1.72 5.83-4.044-.832-2.326-.103-4.752 0-6.167.105-1.416 2.291-1.921 2.5-10.212z" fill="#FF7E21"/><path d="M68.996 56.638c.166-6.633-4.547-11.324-7.393-12.638L59 47.842c3.332 2.123 2.603 8.189 2.603 10.21 0 2.023-4.477 16.076-.937 19.008 3.54 2.931 6.664-1.72 5.83-4.044-.832-2.326-.103-4.752 0-6.167.105-1.416 2.291-1.921 2.5-10.212z" fill="url(#paint5_linear_4_469)"/><defs><linearGradient id="paint0_linear_4_469" x1="83.565" y1="28.964" x2="68.194" y2="76.278" gradientUnits="userSpaceOnUse"><stop stop-color="#FF7E21"/><stop offset="1" stop-color="#E75718"/></linearGradient><linearGradient id="paint1_linear_4_469" x1="59.731" y1="81.076" x2="55.909" y2="115.721" gradientUnits="userSpaceOnUse"><stop stop-color="#FF7E21"/><stop offset="1" stop-color="#E75718"/></linearGradient><linearGradient id="paint2_linear_4_469" x1="59.396" y1="16.909" x2="51.541" y2="30.514" gradientUnits="userSpaceOnUse"><stop stop-color="#E85718"/><stop offset=".776" stop-color="#FF7E21"/></linearGradient><linearGradient id="paint3_linear_4_469" x1="50.423" y1="15.562" x2="48.985" y2="31.205" gradientUnits="userSpaceOnUse"><stop stop-color="#E85718"/><stop offset=".776" stop-color="#FF7E21"/></linearGradient><linearGradient id="paint4_linear_4_469" x1="46.999" y1="68.558" x2="40.285" y2="75.033" gradientUnits="userSpaceOnUse"><stop stop-color="#FF7E21"/><stop offset="1" stop-color="#E75718"/></linearGradient><linearGradient id="paint5_linear_4_469" x1="63.531" y1="67.061" x2="56.839" y2="70.869" gradientUnits="userSpaceOnUse"><stop stop-color="#FF7E21"/><stop offset="1" stop-color="#E75718"/></linearGradient></defs></svg>