<svg width="78" height="140" fill="none" xmlns="http://www.w3.org/2000/svg"><path d="M14.986 9.669C14.643 12.645 16.852 15.129 18 16c-2.316-.805-6.703.163-5.904-.207 1.832-.849-.382-9.725 0-13.565 4.797-1.37 3.321 3.72 2.89 7.441z" fill="#E75718"/><path d="M20.896 2.693c8.854.972 12.275 8.102 13.044 11.748 2.635-.405 5.182 1.372 6.06 2.362-2.793 2.81-8.102 2.566-10.408 2.093 1.423.973 3.272 1.17 4.018 1.08-5.85.973-7.707 4.412-7.905 6.077C21.49 41.23 50.408 52.923 29.592 75l-17.39-14.38c8.694-2.16 1.514-35.985 0-36.93-1.516-.945-3.031-3.173-4.217-5.536-1.04-2.073-1.713-6.887.395-9.385 1.77-2.096 1.362-7.246.725-8.506 4.677-1.283 5.007 2.328 4.018 6.549-.79 3.375.66 7.088.66 7.088 2.37 2.903 5.576 2.717 5.071.946-1.37-4.807.79-10.105 2.043-12.153z" fill="#FF7E21"/><path d="M33.912 14.07c2.647-.486 5.206 1.65 6.088 2.839-1.765.622-6.035 1.638-9 .73l2.912-3.568z" fill="url(#paint0_linear_4_422)"/><path d="M27.75 8.377c1.803 1.095 1.267 2.846.773 3.584-1.444.313-2.234-1.347-2.449-2.216-.193-.912-.128-2.463 1.675-1.368z" fill="#FFD5A1"/><path d="M6.51 77.847c.57 1.323 10.047 2.773 14.112 2.466l3.272-1.47c.317.49.107 1.85-3.272 3.369-4.223 1.898-14.986-.136-16.533-.87-1.546-.735-5.192-6.973-3.764-9.73 1.428-2.755 5.47 4.582 6.184 6.235z" fill="#FF7E21"/><path d="M6.51 77.847c.57 1.323 10.047 2.773 14.112 2.466l3.272-1.47c.317.49.107 1.85-3.272 3.369-4.223 1.898-14.986-.136-16.533-.87-1.546-.735-5.192-6.973-3.764-9.73 1.428-2.755 5.47 4.582 6.184 6.235z" fill="url(#paint1_linear_4_422)"/><path d="M9.002 58.644c10.648-8.27 17.182-.55 19.118 4.344 2.864 1.02 6.099 5.359-3.872 14.56C11.785 89.049-4.308 68.983 9.002 58.644z" fill="#FF7E21"/><path d="M9.002 58.644c10.648-8.27 17.182-.55 19.118 4.344 2.864 1.02 6.099 5.359-3.872 14.56C11.785 89.049-4.308 68.983 9.002 58.644z" fill="url(#paint2_linear_4_422)"/><path d="M48.654 84.117c-13.703-7.352-15.03-12.377-13.98-13.97.842-6.164.344-14.768-8.38.129-10.907 18.621 6.611 29.613 7.642 30.728 6.438 6.96 4.085 10.187 2.337 10.657-1.748.471-5.473-.135-6.32-1.142-1.411-1.681-.031-2.573 1.614-2.555 1.827-3.836-12.028-7.083-14.185 5.256-2.156 12.34 13.906 18.857 26.551 17.93 12.645-.928 16.851-14.801 18.201-20.232 1.35-5.43 3.647-17.61-13.48-26.8z" fill="#FF7E21"/><path d="M48.654 84.117c-13.703-7.352-15.03-12.377-13.98-13.97.842-6.164.344-14.768-8.38.129-10.907 18.621 6.611 29.613 7.642 30.728 6.438 6.96 4.085 10.187 2.337 10.657-1.748.471-5.473-.135-6.32-1.142-1.411-1.681-.031-2.573 1.614-2.555 1.827-3.836-12.028-7.083-14.185 5.256-2.156 12.34 13.906 18.857 26.551 17.93 12.645-.928 16.851-14.801 18.201-20.232 1.35-5.43 3.647-17.61-13.48-26.8z" fill="url(#paint3_linear_4_422)"/><mask id="a" style="mask-type:alpha" maskUnits="userSpaceOnUse" x="17" y="62" width="47" height="70"><path d="M48.654 84.117c-13.703-7.352-15.03-12.377-13.98-13.97.842-6.164.344-14.768-8.38.129-10.907 18.621 6.611 29.613 7.642 30.728 6.438 6.96 4.085 10.187 2.337 10.657-1.748.471-5.473-.135-6.32-1.142-1.411-1.681-.031-2.573 1.614-2.555 1.827-3.836-12.028-7.083-14.185 5.256-2.156 12.34 13.906 18.857 26.551 17.93 12.645-.928 16.851-14.801 18.201-20.232 1.35-5.43 3.647-17.61-13.48-26.8z" fill="#FF7E21"/><path d="M48.654 84.117c-13.703-7.352-15.03-12.377-13.98-13.97.842-6.164.344-14.768-8.38.129-10.907 18.621 6.611 29.613 7.642 30.728 6.438 6.96 4.085 10.187 2.337 10.657-1.748.471-5.473-.135-6.32-1.142-1.411-1.681-.031-2.573 1.614-2.555 1.827-3.836-12.028-7.083-14.185 5.256-2.156 12.34 13.906 18.857 26.551 17.93 12.645-.928 16.851-14.801 18.201-20.232 1.35-5.43 3.647-17.61-13.48-26.8z" fill="url(#paint4_linear_4_422)"/></mask><g mask="url(#a)"><path d="M24.777 107.964c1.076-2.743 5.378-1.143 7.395 0l.605-5.243-3.832-3.63-7.933-12.168 1.614-11.025c2.823-2.286 7.771-4.935 4.974 2.756-3.495 9.613 9.009 17.882 11.294 20.436 2.286 2.555 9.748 12.034 0 18.622-9.747 6.588-15.461-6.319-14.117-9.748z" fill="url(#paint5_linear_4_422)"/></g><mask id="b" style="mask-type:alpha" maskUnits="userSpaceOnUse" x="4" y="55" width="28" height="27"><path d="M9.124 58.86c10.87-8.34 17.54-.556 19.517 4.38 2.923 1.028 6.225 5.404-3.953 14.682C11.965 89.519-4.463 69.285 9.124 58.86z" fill="#FF7E21"/><path d="M9.124 58.86c10.87-8.34 17.54-.556 19.517 4.38 2.923 1.028 6.225 5.404-3.953 14.682C11.965 89.519-4.463 69.285 9.124 58.86z" fill="url(#paint6_linear_4_422)"/></mask><g mask="url(#b)"><path d="M9.53 66.68c2.744-8.12 10.734-5.759 14.387-3.563 1.568 5.221 3.966 16.538 1.008 20.034-2.958 3.495-8.806.29-11.36-1.748C11.076 79.879 6.787 74.8 9.53 66.68z" fill="#FF7E21"/></g><defs><linearGradient id="paint0_linear_4_422" x1="40" y1="16.887" x2="29.743" y2="16.887" gradientUnits="userSpaceOnUse"><stop stop-color="#E85718"/><stop offset=".776" stop-color="#FF7E21"/></linearGradient><linearGradient id="paint1_linear_4_422" x1="13.623" y1="79.051" x2="4.543" y2="86.719" gradientUnits="userSpaceOnUse"><stop stop-color="#FF751A"/><stop offset="1" stop-color="#E75718"/></linearGradient><linearGradient id="paint2_linear_4_422" x1="23.756" y1="64.267" x2="3.934" y2="64.66" gradientUnits="userSpaceOnUse"><stop stop-color="#FF7E21"/><stop offset="1" stop-color="#E75718"/></linearGradient><linearGradient id="paint3_linear_4_422" x1="61.567" y1="120.372" x2="27.434" y2="95.148" gradientUnits="userSpaceOnUse"><stop offset=".27" stop-color="#EB5E19"/><stop offset="1" stop-color="#F96514" stop-opacity="0"/></linearGradient><linearGradient id="paint4_linear_4_422" x1="61.567" y1="120.372" x2="27.434" y2="95.147" gradientUnits="userSpaceOnUse"><stop offset=".27" stop-color="#EB5E19"/><stop offset="1" stop-color="#F96514" stop-opacity="0"/></linearGradient><linearGradient id="paint5_linear_4_422" x1="36.917" y1="88.345" x2="44.845" y2="112.491" gradientUnits="userSpaceOnUse"><stop stop-color="#FF7E21"/><stop offset="1" stop-color="#E75718"/></linearGradient><linearGradient id="paint6_linear_4_422" x1="24.186" y1="64.529" x2="3.951" y2="64.936" gradientUnits="userSpaceOnUse"><stop stop-color="#FF7E21"/><stop offset="1" stop-color="#E75718"/></linearGradient></defs></svg>